<svg version="1" xmlns="http://www.w3.org/2000/svg" width="682.667" height="682.667" viewBox="0 0 512.000000 512.000000"><path d="M266 21.4c0 .3-1.1 6.2-2.5 12.9-1.3 6.7-3.3 19.6-4.5 28.7-2.5 20.4-3 23.1-4 22.5-.4-.2-1.6.4-2.6 1.3-1 1-3.6 2.7-5.7 3.7-2.2 1.1-4.7 2.4-5.8 3-1 .5-1.9 1.3-1.9 1.7 0 .5-.7.8-1.6.8-.9 0-1.2.5-.8 1.2.4.6.3.8-.4.4-.6-.3-3.8.8-7.2 2.5l-6.2 3.1 2.7 2.8c1.7 1.8 2.3 3 1.6 3.5-.6.3-.9 1.1-.6 1.6.3.5 0 .6-.8.3s-1.8-.1-2.2.5c-1.2 2-3.3 1.1-4.4-1.9-1.5-4.6-2.9-3.6-2.1 1.5.6 4.3.5 4.7-2.2 6.2-1.5 1-2.8 2.1-2.8 2.5 0 .4-.7.8-1.5.8s-2.3.8-3.4 1.9c-2.4 2.4-3 1.9-6.6-5.4-2.4-4.7-3.1-5.5-3.3-3.7-.2 1.2.4 4.7 1.3 7.8l1.6 5.6-4.7 4.4c-2.7 2.4-5.3 4.4-5.9 4.4-.7 0-2.9-2.5-5-5.5-2-3-3.9-5.5-4.2-5.5-.2 0 .9 2.5 2.5 5.5 1.7 3 2.6 5.5 2.2 5.5-.5 0-.9.8-.9 1.7.1 1-.3 2.9-.7 4.3-.7 2.4-.7 2.4 1 .7 1-.9 2.3-1.7 3-1.7 1.5 0 18.6 28.5 18.6 31.1 0 1-.9 2.8-1.9 3.8-1.9 1.9-2 1.9-9.3-5.8-9.3-9.9-11.9-12.8-20-22.9-3.7-4.5-6.9-7.8-7.3-7.2-.7 1.2-.8 1.1 7 12 8.6 12.2 14.8 20 18.9 23.9 3.2 3.1 3.4 3.5 1.8 4.7-2.6 2-3.8 1.7-5.2-1.6-1.7-4.2-9.3-11.4-17.3-16.6-3.7-2.4-7-4.4-7.3-4.4-.4 0-.3 1.2.1 2.7.6 2.6.3 2.4-3.7-1.7-5.8-6.1-11.8-10.7-16.5-12.6l-3.8-1.6 2 2.3c5.1 6 17.8 17.1 28 24.4l4 2.9-3.2-3.5c-1.8-1.9-3.3-3.8-3.3-4.2 0-1 10.1 10.3 15.6 17.5 2.4 3.1 4.4 6.2 4.3 7 0 .7-1.3 2.4-3 3.6l-2.9 2.4-6.8-5.6c-5.3-4.3-35.6-23.9-40.7-26.3-1.9-.9 5.1 4.9 17.5 14.5 22.1 17 27 21.1 26 21.7-.6.4-.7 1.2-.4 1.8.4.7.3.9-.1.4-.5-.4-1.8.2-3 1.3l-2.2 2-7.9-5.3c-10.7-7.3-19.9-12.3-26.9-14.7-15.9-5.5-7.9 1.1 17.4 14.3 10.9 5.7 14.5 8 14.6 9.5.1 1.4-.3 1.8-1.3 1.4-.9-.3-1.3-.1-.9.4.3.6-.9 1.8-2.7 2.8l-3.3 1.8-14.9-6.5c-15.5-6.8-22.8-9.2-30.4-10.1-3.9-.4-4.2-.3-2 .6 1.4.6 6.8 3.2 12 5.8 5.2 2.6 14.5 6.4 20.5 8.4 6.1 2 11.6 4 12.3 4.5 1.1.6.4 1.8-2.7 4.9l-4.1 4.1-8.8-2.4c-4.8-1.3-9.8-2.6-11.2-2.9-1.4-.2-4.9-1-7.9-1.5-3-.6-8.4-1.3-12-1.6l-6.6-.5 6 2c3.3 1.1 10.3 2.9 15.5 4.1 5.2 1.1 12.3 2.9 15.7 4l6.3 2.1-5 4.8c-5 4.7-5.7 5-16 6.4-1.9.3-9.8 1.4-17.5 2.5-7.7 1.1-15.8 2.3-18 2.5-21.2 2.8-36.2 4.6-42.5 5.2-4.1.4-8.2.8-9 1-.8.1-3.5.3-5.9.3-2.6.1-4.1.5-3.5 1 .8.7 11 3.1 19.4 4.5 1.4.2 6.3 1.1 11 2 4.7.8 10.3 1.8 12.5 2.1 2.3.3 5.2.8 6.5 1 1.4.3 8.6 1.4 16 2.5 20.8 3 20.3 2.9 19 4.5-.7.8-.9 1.9-.6 2.4.4.5.1 1.3-.5 1.7-.8.5-1 .2-.5-.7.4-.8-.3-.2-1.6 1.3-2.1 2.5-3 2.8-8.6 2.8-6.6 0-12.3-1.8-15.7-5-1.5-1.4-3.9-1.9-10-2.2l-8-.3.2 5c.4 7 2.1 17.6 4.5 27 2.4 9.6 2.9 13.5 1.8 13.2-.4-.1-1.9 1.1-3.3 2.7-2.6 3-2.5 5.2.1 7.2 1.2.9.9 1.3-1.7 2.3-1.7.8-3.1 1.8-3.1 2.3 0 .5-.4.7-.9.4-1.2-.8-3.3 1.9-2.3 2.9.4.5.1.5-.6 0-2.1-1.1-14.8 12.7-13.5 14.8.3.5.2.7-.4.4-.5-.3-2 .7-3.1 2.3-2.4 3.2-2.8 4.5-1 3.4.7-.4.8-.3.4.5-.4.6-1.1.9-1.6.6-.7-.4-4 3.6-4 4.9 0 .2 1.4-.1 3-.7 1.7-.6 3-1.4 3-1.8 0-.4 1-.9 2.3-1.3 1.2-.3 3.9-2.1 6-4s3.9-3.4 4-3.3c.7.6 4.8-3.3 4.3-4.2-.4-.5-.1-1.3.5-1.7.8-.4.9-.3.5.4-1.2 1.9.6 1.4 3-.9 1.6-1.5 2.4-1.7 2.9-.8.5.8.4 1-.3.5-1.1-.7-1.6.7-1.5 4.1.1.7-.3 1-.8.7-.5-.3-.9 0-.9.6s-1.8 4-4 7.6c-2.1 3.5-3.4 6.2-2.7 5.9.7-.4.4 0-.7.9-1 .8-1.5 2-1 2.7.5.8.3 1-.6.4-1-.6-1.2-.4-.7.8.4 1 .2 1.6-.6 1.4-.7-.1-1.1.6-1.1 1.5.1 1-.1 1.6-.5 1.4-.4-.3-1.3.5-2 1.6-1.3 2.1-1.2 2.1 2.5-.2 5.3-3.1 15.8-8.4 22.2-11 4.8-2.1 5.7-3 5.3-5.3-.1-.5.3-.6.9-.2.6.3.7 1.1.4 1.7-.5.7-.1.9.9.5 1.4-.5 1.4-.1.2 3.9-.7 2.4-1.1 4.4-.8 4.4.3 0 0 .7-.7 1.5-.9 1.1-.9 1.5-.1 1.5.7 0 .3 1-.9 2.2-1.1 1.2-2 2.6-2 3.2 0 1.2-4.8 5.4-10.5 9.4-2.2 1.5-4.3 3.1-4.7 3.7-.5.6-.8.6-.8-.2 0-1.5-4.4-.7-7.6 1.4-3.6 2.3-2.7 4.8 1.7 4.7h3.6l-1.9 3c-5 7.9-14.2 22.2-14.7 22.6-.3.3-3 3.1-5.9 6.2-2.8 3.1-5.2 5.5-5.2 5.3 0-.2-1.9 1.4-4.1 3.5-3.7 3.5-4 4.1-2.8 5.7 1.2 1.6 1.2 1.7-.2.6-1.3-1.1-1.9-1-3.3.6-1 1.1-1.9 2.7-2 3.6-.1.9-.8 2-1.5 2.5-.8.4-1 1.3-.6 2 .5.9.4 1.1-.3.6-.7-.4-1.2-.2-1.2.4 0 .6-1.6 3.4-3.5 6.3-2 2.8-4.1 6-4.8 7-.7 1.1-3.6 5.1-6.6 9l-5.3 7.2 5.6-6C16.2 465 17 464.1 17 463.7c0-.2 2.4-2.8 5.3-5.9C36.7 442.5 41.7 437 41.1 437c-.3 0 .2-.5 1.2-1.1.9-.6 1.5-1.5 1.1-2-.3-.5-.1-.8.4-.7 1.6.5 12.3-10.2 11.6-11.5-.4-.7-.4-.9.1-.5 1.1 1 4.7-1.1 4-2.3-.4-.5-.3-.8.2-.7 1.5.5 10.3-6.6 9.8-7.9-.2-.7.1-1.2.8-1 .7.1 1.1-.3 1-.9-.1-.7.5-1.1 1.5-1 1 0 1.6-.6 1.6-1.6-.1-1 .2-1.6.6-1.3.4.3 2.1-1 3.7-2.8 1.6-1.7 4-4.1 5.4-5.2l2.4-2-1.7 2c-1.6 1.9-1.6 2.1 1.1 3.6 2.8 1.6 2.8 1.6 8.4-3.8 3.2-3 5.5-5.9 5.1-6.4-.3-.5.1-.9.8-.9.7 0 3.5-2.3 6.3-5 4-4 5.2-4.7 6.2-3.7.9.9 1 2.2.4 4.5-.7 2.4-.7 3.1.2 2.6.8-.5.8-.3-.1.7-1.5 1.7-1.6 4.3 0 3.3.7-.4.8-.3.4.5-.4.6-1.1.9-1.6.6-.5-.3-1.7.8-2.6 2.5-1 1.6-2.2 3-2.6 3-.4 0-.8.4-.8.9s-1.8 2.8-4 5c-2.3 2.3-3.9 4.1-3.6 4.1.2 0-1.1 1.7-3 3.8-5.3 5.7-7.8 8.5-9.9 11.1l-2 2.4 2.3-1.4c1.2-.8 2.2-1.7 2.2-2.1 0-.5.5-.8 1.2-.8.6 0 1.8-.6 2.7-1.4.9-.8 2.8-2.6 4.3-3.9 4-3.7 4-1.2 0 6.3l-3.5 6.5 5.2-5.5c2.8-3 4.9-6 4.7-6.7-.3-.7.1-1 .9-.7.8.3 1.6-.3 2-1.5.3-1.2 1.1-1.9 1.6-1.6.5.4.9-.1.9-1s-.4-1.4-.9-1c-.5.3-1.2.1-1.5-.4-.3-.4.4-.8 1.7-.7 1.7.1 3.2-1.4 6.4-6.3 2.3-3.5 4-6.8 3.7-7.3-.3-.4 0-.8.6-.8s1.5-1.1 2.1-2.4c1.1-2.4 1.3-2.3 9.6 6 14.6 14.5 32.8 27.5 50.4 35.9 15.7 7.4 44.7 15.8 62.4 18 1.1.2 3.9.6 6.3 1l4.3.6-.6-5.3c-.9-7.9-2.7-16.8-3.4-17.2-.6-.4-9.2 1.1-17 2.9-2.6.7-2.6 1.1.3-9 1.5-4.8 1.4-4.9-.2-2.6-4 5.8-4.6 6.3-7.1 5.3-2.2-.8-2.1-1 3.7-6.2 3.3-3 5.8-5.9 5.4-6.5-.3-.5.2-.4 1.1.4 1.3 1 1.7 1 1.7.1 0-.6 2.2-3.2 5-5.8 2.7-2.5 4.7-4.9 4.4-5.3-.3-.5.2-.6 1-.3.9.3 1.6.1 1.6-.5s.6-1.1 1.3-1.1c.9 0 2.1 5.7 4 18.7 1.5 10.4 3 20.4 3.3 22.3 1.2 8.3 4.4 27.7 4.8 29.5.2 1.1 1 5.5 1.7 9.7 1.7 10.1 2.1 9.8 3.5-2.7.3-3.3.8-6.7.9-7.7.2-.9.6-3.6.9-6 3.6-27.1 5.8-41.6 6.6-43 .6-1 1-3.9 1-6.5s.7-9.7 1.6-15.8c1.5-10 1.9-11.3 4.9-14.7l3.3-3.6 1.2 7.1c.6 4 2.5 12.6 4.2 19.2 1.6 6.6 3.2 13.1 3.5 14.5.7 3.9-2.7 6.7-9.8 8.1l-6.1 1.2.7 10.6c.4 5.8.8 10.7 1 10.9.1.2 2.9-.6 6.1-1.7 3.3-1 9.7-2.6 14.4-3.5 21.8-4.2 32.5-7.8 51.2-17.1 35.8-17.9 64.5-46.1 83.2-81.7 5.3-10 14-31.1 15-35.9.2-1.3.7-3.1 1-3.9 1.3-3.5 1.9-8.2 2.5-19.9l.6-12.4 3.5-1.2c4.1-1.4 3-2-6.2-3.1-3.2-.3-6.3-1.3-6.9-2.1-.8-.9-.8-1.3-.2-1.1.6.2 3.1-1.5 5.5-3.8 4.3-4 4.4-4.1 13.8-4.7 7.6-.6 34-6 32-6.7-1.4-.4-4.1-.8-11-1.4-4.1-.4-9.4-.9-11.8-1.2-4.3-.6-4.3-.6-2-2.3 1.3-.9 2.6-1.6 3.1-1.7.4-.1 1-.2 1.5-.3.4-.1 0-.6-.8-1.2-1.3-.9-1.2-1 .3-.5 2 .6 9-2.7 8-3.8-.4-.4 0-.4 1 0 .9.3 1.7.2 1.7-.4 0-.6 1.4-1.3 3-1.7 1.7-.4 3-1.1 3-1.6s.6-.9 1.4-.9c2.1 0 6.7-2.6 5.9-3.4-.4-.4 0-.4 1 0 1.4.5 1.7 0 1.7-3.6 0-2.2-.4-3.9-.9-3.6-.4.3-.1-1 .7-2.9.9-1.9 1.8-3.3 2-3 .8.7 3.3-2.5 2.7-3.4-.3-.5 0-1.3.6-1.7.8-.4.9-.3.5.4s-.3 1.2.3 1.2 1.6-1 2.2-2.3c.6-1.2.8-1.9.4-1.5-.4.4-1.7.1-2.9-.7-1.1-.8-2.8-1.5-3.8-1.5-2.3 0-2.3-1.1 0-3.6 2.1-2.2 5.9-10.8 6.4-14.4.4-2.9-1.2-3.2-8.2-1.5-3.7.9-4.5 1.5-4.4 3.4.1 1.2-.1 1.9-.5 1.6-.3-.4-.6-1.1-.6-1.6s-.4-.9-1-1c-1.9-.1-11.4 3.5-10.9 4.2.2.4-.5.5-1.6.2s-2 0-2 .6-.3 1-.7 1c-2-.3-3.4.2-2.8 1 .3.5 0 1.3-.6 1.7-.8.5-.9.3-.4-.6.4-.7.4-1.1-.1-.8-.5.2-2.8 1.2-5.1 2.2-2.4 1-4.3 2.2-4.3 2.6 0 .4-.8.7-1.7.6-1 0-1.7.4-1.6 1 .1.6-.9 1-2.3.8-1.6-.1-2.4.2-2.1.9.3.8-.8 1.2-3.1 1.2-3.4 0-3.6-.2-4.9-5-1.7-6.6-1.8-6.2 2-8.5 1.7-1.1 2.7-2 2.1-2-.5 0-1.9.7-3 1.5-2.7 2-3.1 1.9-4.3-1.6-1.5-4.3-1.4-4.7 1-5.4 1.1-.4 1.8-.9 1.6-1.2-.3-.2-1.5 0-2.6.7-1.3.7-2.1.7-2.1.1 0-2.8-20.2-43.1-21.7-43.1-.6 0-2.5 2-8 8.7-2 2.4-3.8 4.3-4.2 4.3-.3 0-1.7-1.7-3.1-3.7-1.4-2-4.2-5.7-6.2-8.2-3.4-4-3.6-4.7-2.3-6.1.8-.9 1.2-2 .8-2.3-.3-.4-.1-.7.6-.7s1-.4.7-.9c-.3-.5.1-1.2 1-1.5.9-.4 1.4-1.3 1-2.2-.3-.8-.2-1.3.3-.9.5.3 1.1 0 1.3-.6.5-1.5 4.8 2.5 4.8 4.5 0 1.1.9 1.6 2.8 1.6 2.6 0 2.7.2 2.4 4-.2 2.2-.2 4 0 4 1.2 0 6.8-2.3 6.8-2.8 0-.9-5.2-7.5-10.3-12.8-4.1-4.4-4.7-5.6-4.1-8 1.2-5.5.9-9.6-.6-10.4-.8-.4-2.7-1.3-4.2-2-2.7-1.3-2.7-1.3-.7-3.1 1.1-1 2-2.1 2-2.6.1-.4.3-1 .6-1.3.4-.3.2.1-.2.9-.6 1.1-.4 1.3.9.8 1-.4 2-.7 2.2-.7.3 0 .2-.5-.2-1.2-.4-.6-.3-.8.4-.4 1.2.7 8.2-3.1 8.2-4.5 0-.5.3-.8.8-.7 1 .3 5.5-2.3 4.9-2.8-.7-.7-8.7 2.7-8.7 3.7 0 .5-.7.6-1.5.3-.8-.4-1.5-.1-1.5.6 0 .6-.4.8-1 .5-.5-.3-1.6-.3-2.2.2-.7.4-1.7.8-2.3.9-10.4 2.1-13.2 2.2-14.9.4-.6-.7-.6-1-.1-.7.6.3 4.2-1.9 8-4.9 3.9-2.9 10-7.5 13.7-10 3.7-2.6 6.5-5 6.2-5.5-.3-.5.2-.6 1-.3.9.3 1.6.1 1.6-.5s.5-1.1 1.1-1.1c1.6 0 3.9-2.6 3.1-3.5-.4-.5-.1-.5.6-.1.6.4 1.8.1 2.6-.6.7-.7 2.3-1.9 3.4-2.7 1.7-1.2 1.9-1.8.9-3-1-1.4-1-1.4.4-.4 1.2 1 2.8.5 8.7-2.5 5-2.6 7.1-4.2 6.7-5.2-.3-1.1-.2-1.1.7.1 1.1 1.6 1.6 1.5 6.7-.4 3.1-1.2 5.9-2.6 6.3-3.2.4-.5.8-.6.8-.1s.7.2 1.7-.5c.9-.8 1.7-1.3 1.7-1.1.1.3 1.3 0 4.6-1.2 3.7-1.3-14.8 1.1-22 2.9-.8.2-2 .4-2.7.4-.7.1-1 1-.8 2.2.3 1.2.1 1.8-.3 1.5-.4-.4-.7-1.2-.7-1.7 0-1.5-2.8-.8-10 2.6-6.8 3.3-11.9 8-11.2 10.5.3 1.3.1 1.8-.6 1.3-.6-.4-.8 0-.4 1 .7 2 .1 2.4-4.4 3.2-8.6 1.5-16.4 3.7-17.1 4.8-.6.9-.8.9-.8-.1 0-.7-.4-1-1-.7-1.1.7-4.7 1.6-6.8 1.7-.7.1-1 .8-.7 1.6.4 1.2.2 1.2-.8.3-1.5-1.2-7.7-.4-7.7.9 0 .5-1 .6-2.2.2-1.1-.3-1.9-.1-1.5.4.3.5-.8.9-2.4.9-1.6.1-2.9-.2-2.9-.6 0-.4 1.6-2.4 3.5-4.5 1.9-2 3.2-4.1 2.9-4.5-.3-.5-.2-.8.3-.7 1 .3 11.3-8.6 11.3-9.7 0-.3-.6-.3-1.2.2-.7.4-2.1.9-3 1-3.6.6-4.3.8-5 1.8-.5.6-.8.6-.8-.1 0-1.6 4.9-5.6 11.6-9.6 3.2-1.9 6.2-3.5 6.6-3.7.4-.1 1.8-.6 3-1.1 2.1-.8 2.2-.9.3-1-3.8-.3-13 .4-13 1 0 .1-1.1.3-2.4.6-1.3.2-4.8 1.8-7.7 3.4-3 1.6-5.6 3-5.9 3-.3 0-2.1.7-4.1 1.5-2 .8-4.2 1.5-4.8 1.5-.7 0-1.7.5-2.2 1-.6.6-2.3 1.3-3.7 1.6-1.5.2-3.9.9-5.4 1.6-1.6.6-3 1.2-3.3 1.3-2.2.6-6.2 2-9.6 3.6l-4.1 1.8-8.6-3.2c-4.7-1.8-8.9-3.5-9.2-3.8-.2-.3 1.5-1.6 4-2.8 2.5-1.2 4.5-2.4 4.5-2.5 0-.2-2.7-.2-6 0-3.7.2-6-.1-6-.8 0-.7-.5-.6-1.4.1-1.1.9-1.6.9-2.2 0-.4-.8-.3-.9.4-.5s1.2.3 1.2-.3c0-2.3-2.9-2.7-12-1.6-1.4.2-3.1.4-3.8.4-.8.1-1 .6-.6 1.3.5 1 .4 1-.6.1-.7-.7-2.2-.8-3.9-.4-1.4.5-5.6.6-9.2.4-6.6-.4-6.6-.4-6.2 2 .4 1.9-.1 2.9-2.1 4.2-1.4 1-2.3 2.2-1.9 2.9.4.8.3.8-.6 0-.7-.6-1.9-6-2.7-12-.7-6-1.6-12.5-1.8-14.4-.3-1.9-.8-7.3-1.1-12-1-12.6-1.2-14-1.9-14.7-.3-.4-.6-.3-.6.1zm111 46.7c0 .5-.4.9-.8.9-.5 0-.9-.7-.9-1.5s.4-1.2.9-.9c.4.3.8.9.8 1.5zm55 1.5c0 .8-1.9 1.3-2.4.6-.3-.5.1-.9.9-.9s1.5.2 1.5.3zm-164.6 4.6c.4 2.4.3 3.8-.4 3.8-.5 0-1-1.9-1-4.2 0-4.9.5-4.7 1.4.4zm91.3-.7c0 .8-.4 1.2-.9.9-.5-.3-.6-1-.3-1.5.9-1.3 1.2-1.1 1.2.6zm8.3.5c0 .5-.5 1-1.1 1-.5 0-.7-.5-.4-1 .3-.6.8-1 1.1-1 .2 0 .4.4.4 1zm3.4-.2c.3.5-.1.9-.9.9s-1.2-.4-.9-.9c.3-.4.7-.8.9-.8.2 0 .6.4.9.8zm8.1.3c.2.3-.8.5-2.5.5-1.6 0-2.7-.3-2.5-.6.5-.8 4.2-.6 5 .1zm-92.1 3.7c.3.5-.1.9-.9.9s-1.2-.4-.9-.9c.3-.4.7-.8.9-.8.2 0 .6.4.9.8zm8.1.2c.3.5.1 1-.4 1-.6 0-1.1-.5-1.1-1 0-.6.2-1 .4-1 .3 0 .8.4 1.1 1zm61.9-.2c.3.5-.1.9-.9.9s-1.2-.4-.9-.9c.3-.4.7-.8.9-.8.2 0 .6.4.9.8zm-4.3 1.1c.4.1.6 1.1.5 2.4-.1 2.6-1.2 2.7-6.8.8-7.2-2.4-3.5-4.3 6.3-3.2zm12.4 1.9c-.3.3-1.1 0-1.8-.7-.9-1-.8-1.1.6-.5 1 .3 1.5.9 1.2 1.2zm6.1 1.7c-.1.8-.5 1.7-.8 2.1-.5.4-.4-1.6.1-3.4.3-.9.9.1.7 1.3zm-70.3 1.4c.3 1.1.2 2.2-.1 2.5-1.1 1.1-5.3.6-9-1.1l-3.7-1.7 5.5-.6c3-.4 5.8-.7 6.1-.8.4-.1.9.7 1.2 1.7zm-21.7.6c-.1.8-.5 1.7-.8 2.1-.5.4-.4-1.6.1-3.4.3-.9.9.1.7 1.3zm84 0c-.1.8-.5 1.7-.8 2.1-.5.4-.4-1.6.1-3.4.3-.9.9.1.7 1.3zm-62.8 5.8c.6.5 1.2 1.4 1.1 2 0 .9-.2.9-.6-.1-.2-.6-1.1-1.2-1.9-1.2-.9 0-1.2.5-.8 1.2.4.7.4 1 0 .6-.4-.3-2.9 0-5.4.8-5.3 1.6-5.8 1.6-4.9.8.3-.4.2-1.6-.4-2.7-.8-1.4-.8-1.8 0-1.3.7.4 1.1 0 1.1-1.2 0-1.7.4-1.8 5.3-.8 2.8.6 5.8 1.5 6.5 1.9zm-17.1-.8c0 .8-.4 1.2-.9.9-.5-.3-.6-1-.3-1.5.9-1.3 1.2-1.1 1.2.6zm107.9 1c-.1.8-.5 1.7-.8 2.1-.5.4-.4-1.6.1-3.4.3-.9.9.1.7 1.3zm7.9-.6c-.9.8-3.6 1-3 .2.2-.4 1.1-.8 2-.8.8 0 1.3.3 1 .6zm6.1.3c.3.4-.1.5-1 .4-.8-.1-1.8-.5-2.2-.8-.3-.4.1-.5 1-.4.8.1 1.8.5 2.2.8zm-158.2 3.7c.3.5-.2 1.5-1.2 2.2-1.5 1.2-1.6 1.2-.5-.2.7-.9 1-1.9.6-2.2-.3-.4-.4-.7 0-.7.3 0 .8.4 1.1.9zm4.6-.3c0 .8-1.9 1.3-2.4.6-.3-.5.1-.9.9-.9s1.5.2 1.5.3zm34.4.2c.3.5-.1.9-.9.9s-1.2-.4-.9-.9c.3-.4.7-.8.9-.8.2 0 .6.4.9.8zm89.1.1c-.9.8-3.6 1-3 .2.2-.4 1.1-.8 2-.8.8 0 1.3.3 1 .6zm6.5.6c0 .2-.9.3-1.9.2-1.1 0-1.8-.5-1.5-.9.4-.6 3.4 0 3.4.7zm17.6-.3c.3.4-.1.5-1 .4-.8-.1-1.8-.5-2.2-.8-.3-.4.1-.5 1-.4.8.1 1.8.5 2.2.8zm-79.6.7c0 .5-1.3 1.4-3 2.1-1.6.7-2.7 1.7-2.3 2.3.3.5.1.7-.5.3-1.6-.9-8.2 2.5-8.2 4.3 0 1.4-.1 1.4-1 .1-.6-.9-1-1.1-1-.3 0 .7-.7 1-1.5.7-.8-.4-1.5-.1-1.5.5s-1.2 1.1-2.6 1.1c-3.7 0-2.2-1.6 4.9-5.2 3.4-1.7 6.5-3.6 6.9-4.2.4-.6.8-.7.8-.3 0 .4 1.2.1 2.8-.7 3-1.7 6.2-2.1 6.2-.7zm-23 .7c0 .8-1.9 1.3-2.4.6-.3-.5.1-.9.9-.9s1.5.2 1.5.3zm-8 2c0 .8-1.9 1.3-2.4.6-.3-.5.1-.9.9-.9s1.5.2 1.5.3zm91 0c0 .8-1.9 1.3-2.4.6-.3-.5.1-.9.9-.9s1.5.2 1.5.3zm11.5.4c.3.5.1 1-.4 1-.6 0-1.1-.5-1.1-1 0-.6.2-1 .4-1 .3 0 .8.4 1.1 1zm4.5 0c0 .5-.5 1-1.1 1-.5 0-.7-.5-.4-1 .3-.6.8-1 1.1-1 .2 0 .4.4.4 1zm-68.4 2.5c-.1.8-.5 1.7-.8 2.1-.5.4-.4-1.6.1-3.4.3-.9.9.1.7 1.3zm-80.1 1.4c-.9.8-3.6 1-3 .2.2-.4 1.1-.8 2-.8.8 0 1.3.3 1 .6zm84.2-.2c-.4.3-.1 1.3.6 2.2 1.1 1.4 1 1.4-.5.2-1.6-1.2-1.6-3.1-.1-3.1.4 0 .3.3 0 .7zm-48.1 4.8c-.1.8-.5 1.7-.8 2.1-.5.4-.4-1.6.1-3.4.3-.9.9.1.7 1.3zm10.8 0c-.6 1.3-8 5.5-9.4 5.2-.3 0-1.5.5-2.7 1.2-1.9 1-2.2.9-1.7-.4.3-.8 1-1.2 1.5-.9.5.3.9 0 .9-.7s.3-.9.7-.6c.3.4 1.2.2 1.9-.3 1-.9 8.3-4.8 9.1-5 .1 0 0 .7-.3 1.5zm49.6-1.1c0 .3-.4.8-1 1.1-.5.3-1 .1-1-.4 0-.6.5-1.1 1-1.1.6 0 1 .2 1 .4zm48.4.4c.3.5-.1.9-.9.9s-1.2-.4-.9-.9c.3-.4.7-.8.9-.8.2 0 .6.4.9.8zm11.6.2c0 .5-.5 1-1.1 1-.5 0-.7-.5-.4-1 .3-.6.8-1 1.1-1 .2 0 .4.4.4 1zm-66.4 1.5c-.1.8-.5 1.7-.8 2.1-.5.4-.4-1.6.1-3.4.3-.9.9.1.7 1.3zm-90 2.1c.1.9 0 1.3-.4 1-.3-.4-.7-1.4-.8-2.2-.1-.9 0-1.3.4-1 .3.4.7 1.4.8 2.2zm4-1.1c-.1.8-.5 1.7-.8 2.1-.5.4-.4-1.6.1-3.4.3-.9.9.1.7 1.3zm144 0c-.1.8-.5 1.7-.8 2.1-.5.4-.4-1.6.1-3.4.3-.9.9.1.7 1.3zm-164.1 1.4c.3.5.2 1.2-.3 1.5-.5.3-.9-.1-.9-.9 0-1.7.3-1.9 1.2-.6zm68.5.1c0 .5-.5 1-1.1 1-.5 0-.7-.5-.4-1 .3-.6.8-1 1.1-1 .2 0 .4.4.4 1zm9.6.2c.3.4-.1.5-1 .4-.8-.1-1.8-.5-2.2-.8-.3-.4.1-.5 1-.4.8.1 1.8.5 2.2.8zm10.4-.2c0 .5-.2 1-.4 1-.3 0-.8-.5-1.1-1-.3-.6-.1-1 .4-1 .6 0 1.1.4 1.1 1zm3.4-.2c.3.5-.1.9-.9.9s-1.2-.4-.9-.9c.3-.4.7-.8.9-.8.2 0 .6.4.9.8zm8.1.2c.3.5.1 1-.4 1-.6 0-1.1-.5-1.1-1 0-.6.2-1 .4-1 .3 0 .8.4 1.1 1zm16-.1c-.9.8-3.6 1-3 .2.2-.4 1.1-.8 2-.8.8 0 1.3.3 1 .6zm28.2.6c0 .8-.4 1.2-.9.9-.5-.3-.6-1-.3-1.5.9-1.3 1.2-1.1 1.2.6zm-83.3 1.3c.3.5-.1.9-.9.9s-1.2-.4-.9-.9c.3-.4.7-.8.9-.8.2 0 .6.4.9.8zm43.2 1.8c.1.9 0 1.3-.4 1-.3-.4-.7-1.4-.8-2.2-.1-.9 0-1.3.4-1 .3.4.7 1.4.8 2.2zm48 0c.1.9 0 1.3-.4 1-.3-.4-.7-1.4-.8-2.2-.1-.9 0-1.3.4-1 .3.4.7 1.4.8 2.2zm-75.9-.1c0 .8-.4 1.2-.9.9-.5-.3-.6-1-.3-1.5.9-1.3 1.2-1.1 1.2.6zm-78.1.7c.3.4-.1.5-1 .4-.8-.1-1.8-.5-2.2-.8-.3-.4.1-.5 1-.4.8.1 1.8.5 2.2.8zm14 .3c-.1.8-.5 1.7-.8 2.1-.5.4-.4-1.6.1-3.4.3-.9.9.1.7 1.3zm106-.3c.3.4-.1.5-1 .4-.8-.1-1.8-.5-2.2-.8-.3-.4.1-.5 1-.4.8.1 1.8.5 2.2.8zm30.8-.4c.3.5-.1.9-.9.9s-1.2-.4-.9-.9c.3-.4.7-.8.9-.8.2 0 .6.4.9.8zm-144 2c.3.5-.1.9-.9.9s-1.2-.4-.9-.9c.3-.4.7-.8.9-.8.2 0 .6.4.9.8zm37.6-.2c0 .8-1.9 1.3-2.4.6-.3-.5.1-.9.9-.9s1.5.2 1.5.3zm132-.2c0 .2-.7.7-1.6 1-.8.3-1.2.2-.9-.4.6-1 2.5-1.4 2.5-.6zm-154.6 2.4c.3.5-.1.9-.9.9s-1.2-.4-.9-.9c.3-.4.7-.8.9-.8.2 0 .6.4.9.8zm52.1.2c.3.5.1 1-.4 1-.6 0-1.1-.5-1.1-1 0-.6.2-1 .4-1 .3 0 .8.4 1.1 1zm16 0c.3.5.1 1-.4 1-.6 0-1.1-.5-1.1-1 0-.6.2-1 .4-1 .3 0 .8.4 1.1 1zm8-.1c-.9.8-3.6 1-3 .2.2-.4 1.1-.8 2-.8.8 0 1.3.3 1 .6zm12.1 1.7c.1.9 0 1.3-.4 1-.3-.4-.7-1.4-.8-2.2-.1-.9 0-1.3.4-1 .3.4.7 1.4.8 2.2zm4.4-2c0 .8-1.9 1.3-2.4.6-.3-.5.1-.9.9-.9s1.5.2 1.5.3zm11.6 2c.1.9 0 1.3-.4 1-.3-.4-.7-1.4-.8-2.2-.1-.9 0-1.3.4-1 .3.4.7 1.4.8 2.2zm4.4-2c0 .8-1.9 1.3-2.4.6-.3-.5.1-.9.9-.9s1.5.2 1.5.3zm27.5.3c-.9.8-3.6 1-3 .2.2-.4 1.1-.8 2-.8.8 0 1.3.3 1 .6zM233 120.1c0 .5-.4.8-.8.5-.5-.3-2.3.4-4 1.5-3.6 2.1-4.2 2.3-4.2 1 0-.4 1.7-1.5 3.8-2.4 4.6-1.9 5.2-2 5.2-.6zm175.5-.1c.3.5.1 1-.4 1-.6 0-1.1-.5-1.1-1 0-.6.2-1 .4-1 .3 0 .8.4 1.1 1zM299 121.6c0 .8-1.9 1.3-2.4.6-.3-.5.1-.9.9-.9s1.5.2 1.5.3zm36.4.2c.3.5-.1.9-.9.9s-1.2-.4-.9-.9c.3-.4.7-.8.9-.8.2 0 .6.4.9.8zm49.6-.3c0 .7-3 1.3-3.4.7-.3-.4.4-.9 1.5-.9 1-.1 1.9 0 1.9.2zm10 .5c0 .5-.2 1-.4 1-.3 0-.8-.5-1.1-1-.3-.6-.1-1 .4-1 .6 0 1.1.4 1.1 1zm-158.9 3.3c-1 .9-1.1.8-.5-.6.3-1 .9-1.5 1.2-1.2.3.3 0 1.1-.7 1.8zm34.5.3c.1.9 0 1.3-.4 1-.3-.4-.7-1.4-.8-2.2-.1-.9 0-1.3.4-1 .3.4.7 1.4.8 2.2zm16-1.1c-.1.8-.5 1.7-.8 2.1-.5.4-.4-1.6.1-3.4.3-.9.9.1.7 1.3zm56 0c-.1.8-.5 1.7-.8 2.1-.5.4-.4-1.6.1-3.4.3-.9.9.1.7 1.3zm16 0c-.1.8-.5 1.7-.8 2.1-.5.4-.4-1.6.1-3.4.3-.9.9.1.7 1.3zm11.9.4c.3.5.2 1.2-.3 1.5-.5.3-.9-.1-.9-.9 0-1.7.3-1.9 1.2-.6zm-160 1.1c.3.5.1 1-.4 1-.6 0-1.1-.5-1.1-1 0-.6.2-1 .4-1 .3 0 .8.4 1.1 1zm4 0c-.3.5-.1 1 .4 1 .6 0 1.1-.4 1.1-.8s.9-.8 2-.9c1.4-.1 2 .4 2 1.8 0 1-.3 1.8-.7 1.7-1.1-.3-5.3 2.5-5.3 3.5 0 .4.5.5 1.1.2 1.9-1.3 6.9-1.6 6.9-.6 0 .6-.8 1.1-1.8 1.1s-2.2.3-2.6.7c-.3.4-1.2.8-1.9 1-.7.1-2.3.5-3.8.9-2 .4-2.7.1-3.6-1.9-1.3-2.8-.6-3.9 3.4-5.1 1.3-.4 2.2-1 2.2-1.4-.2-1.2.1-2.2.7-2.2.3 0 .2.4-.1 1zm16-.1c.3.5.2 1.2-.3 1.5-.5.3-.9-.1-.9-.9 0-1.7.3-1.9 1.2-.6zm120.5.1c0 .5-.2 1-.4 1-.3 0-.8-.5-1.1-1-.3-.6-.1-1 .4-1 .6 0 1.1.4 1.1 1zm16 0c0 .5-.2 1-.4 1-.3 0-.8-.5-1.1-1-.3-.6-.1-1 .4-1 .6 0 1.1.4 1.1 1zm20 0c0 .5-.5 1-1.1 1-.5 0-.7-.5-.4-1 .3-.6.8-1 1.1-1 .2 0 .4.4.4 1zm-140.3 2.9c0 1.1-.5 1.8-.9 1.5-.4-.3-.5-1.1-.1-1.9.7-2.1 1.2-1.9 1 .4zm74.7-.7c-.3.4-.9.8-1.5.8-.5 0-.9-.4-.9-.8 0-.5.7-.9 1.5-.9s1.2.4.9.9zm77.1.7c.3.5.2 1.2-.3 1.5-.5.3-.9-.1-.9-.9 0-1.7.3-1.9 1.2-.6zm-166 1c-.3.2-1.7.6-3.2.7-2 .2-2.3 0-1.4-.6 1.5-.8 5.4-1 4.6-.1zm54 0c.3.5.2 1.2-.3 1.5-.5.3-.9-.1-.9-.9 0-1.7.3-1.9 1.2-.6zm48.1.6c-.1.8-.5 1.7-.8 2.1-.5.4-.4-1.6.1-3.4.3-.9.9.1.7 1.3zm4 0c-.1.8-.5 1.7-.8 2.1-.5.4-.4-1.6.1-3.4.3-.9.9.1.7 1.3zm16 1.1c.1.9 0 1.3-.4 1-.3-.4-.7-1.4-.8-2.2-.1-.9 0-1.3.4-1 .3.4.7 1.4.8 2.2zm7.7-.1c-.7 2.1-1.2 1.9-1-.4 0-1.1.5-1.8.9-1.5.4.3.5 1.1.1 1.9zm-94.2 1.2c1.3 1.6 1.2 1.7-.3.4-1.7-1.3-2.2-2.1-1.4-2.1.2 0 1 .8 1.7 1.7zm-63.8 3.2c1.4 2.8 1.3 3-1.1 5l-2.6 2.1h3.6c2.7 0 4 .6 4.8 1.9.7 1.3.7 2.2 0 2.6-1.5.9-1.2 2.7.3 1.9.7-.4.8-.3.4.2-.5.5-1.6.9-2.5.9-.9 0-1.6.6-1.4 1.3.1.8-.2 1.1-.7.8-.5-.4-1.2-.2-1.6.4-1.3 2.1-3.2.7-7.5-5.7-4-6-6.1-11.1-4-9.8 1.2.8 4.1-.6 3.4-1.6-.3-.5.1-.6.8-.4.8.3 2.2-.1 3.3-.9 2.8-2.1 3.2-2 4.8 1.3zm42.2-2c.3.5.2 1.2-.3 1.5-.5.3-.9-.1-.9-.9 0-1.7.3-1.9 1.2-.6zm27.9-.1c.3.5-.1.9-.9.9s-1.2-.4-.9-.9c.3-.4.7-.8.9-.8.2 0 .6.4.9.8zm24.6-.4c0 .3-.4.8-1 1.1-.5.3-1 .1-1-.4 0-.6.5-1.1 1-1.1.6 0 1 .2 1 .4zm15.4.4c.3.5-.1.9-.9.9s-1.2-.4-.9-.9c.3-.4.7-.8.9-.8.2 0 .6.4.9.8zm61 0c.3.5-.1.9-.9.9s-1.2-.4-.9-.9c.3-.4.7-.8.9-.8.2 0 .6.4.9.8zm23.2 1.8c.1.9 0 1.3-.4 1-.3-.4-.7-1.4-.8-2.2-.1-.9 0-1.3.4-1 .3.4.7 1.4.8 2.2zm-127.9 1.3c0 1.1-.5 1.8-.9 1.5-.4-.3-.5-1.1-.1-1.9.7-2.1 1.2-1.9 1 .4zm-52.3.9c.2.4-.5.9-1.7.9-1.7.2-1.9 0-.7-.7 1.8-1.2 1.8-1.2 2.4-.2zm5 0c.3.5-.1.9-.9.9s-1.2-.4-.9-.9c.3-.4.7-.8.9-.8.2 0 .6.4.9.8zm13.5.4c-4.1 2.5-7.1 3.9-7.6 3.5-.3-.3 1.2-1.4 3.4-2.5 2.1-1.1 4-1.8 4.2-1.6.2.2.2.5 0 .6zm57.7 0c.3.4-.1.5-1 .4-.8-.1-1.8-.5-2.2-.8-.3-.4.1-.5 1-.4.8.1 1.8.5 2.2.8zm21.9-.3c-.9.8-3.6 1-3 .2.2-.4 1.1-.8 2-.8.8 0 1.3.3 1 .6zm16.1.3c.3.4-.1.5-1 .4-.8-.1-1.8-.5-2.2-.8-.3-.4.1-.5 1-.4.8.1 1.8.5 2.2.8zm18.4-.2c0 .5-.2 1-.4 1-.3 0-.8-.5-1.1-1-.3-.6-.1-1 .4-1 .6 0 1.1.4 1.1 1zm7.5-.1c-.9.8-3.6 1-3 .2.2-.4 1.1-.8 2-.8.8 0 1.3.3 1 .6zm12.5-.5c0 .3-.4.8-1 1.1-.5.3-1 .1-1-.4 0-.6.5-1.1 1-1.1.6 0 1 .2 1 .4zm-34.7 2.1c-.3.9-.8 1.4-1 1.1-.3-.3-.2-.9.2-1.5.9-1.6 1.5-1.3.8.4zm40.3 1.1c.1.9 0 1.3-.4 1-.3-.4-.7-1.4-.8-2.2-.1-.9 0-1.3.4-1 .3.4.7 1.4.8 2.2zm-102 3c.1.9 0 1.3-.4 1-.3-.4-.7-1.4-.8-2.2-.1-.9 0-1.3.4-1 .3.4.7 1.4.8 2.2zm35.9-1.7c-.9.8-3.6 1-3 .2.2-.4 1.1-.8 2-.8.8 0 1.3.3 1 .6zm40.1 1.7c.1.9 0 1.3-.4 1-.3-.4-.7-1.4-.8-2.2-.1-.9 0-1.3.4-1 .3.4.7 1.4.8 2.2zm16 0c.1.9 0 1.3-.4 1-.3-.4-.7-1.4-.8-2.2-.1-.9 0-1.3.4-1 .3.4.7 1.4.8 2.2zm15.9-1.6c.3.5.1 1-.4 1-.6 0-1.1-.5-1.1-1 0-.6.2-1 .4-1 .3 0 .8.4 1.1 1zm4.5-.6c0 .3-.4.8-1 1.1-.5.3-1 .1-1-.4 0-.6.5-1.1 1-1.1.6 0 1 .2 1 .4zm-163.4 4.8c-2 1-3.6 2-3.6 2.2 0 .1 1.6.2 3.6.1 4.7-.4 5.5 1.8 1.8 5.6-1.5 1.6-2.4 2.9-1.9 2.9s-.1.7-1.3 1.6c-1.2.8-2 2-1.6 2.5.3.5.2.8-.3.7-1-.4-5.9 4.5-5.5 5.5.1.5-.2.6-.8.2-.5-.3-1-.1-1 .4 0 .6-.6 1.1-1.3 1.1-1.5 0-9.8-12-9.1-13.2.3-.5 2.2-1.5 4.2-2.4 2-.8 3.9-2 4.3-2.5.4-.7 2.2.9 4.3 3.6 4.1 5.5 4.3 5.4 1.6-.9l-1.9-4.6 2.2-1.4c4.5-2.8 8.2-4.4 9.1-3.9.5.4-.7 1.4-2.8 2.5zm46.9-.3c-.9.8-3.6 1-3 .2.2-.4 1.1-.8 2-.8.8 0 1.3.3 1 .6zm19.9-.1c.3.5-.1.9-.9.9s-1.2-.4-.9-.9c.3-.4.7-.8.9-.8.2 0 .6.4.9.8zm6.1.1c-.9.8-3.6 1-3 .2.2-.4 1.1-.8 2-.8.8 0 1.3.3 1 .6zm32.1.3c.3.4-.1.5-1 .4-.8-.1-1.8-.5-2.2-.8-.3-.4.1-.5 1-.4.8.1 1.8.5 2.2.8zm17.9-.3c-.9.8-3.6 1-3 .2.2-.4 1.1-.8 2-.8.8 0 1.3.3 1 .6zm40.1 1.7c.1.9 0 1.3-.4 1-.3-.4-.7-1.4-.8-2.2-.1-.9 0-1.3.4-1 .3.4.7 1.4.8 2.2zm4-1.1c-.1.8-.5 1.7-.8 2.1-.5.4-.4-1.6.1-3.4.3-.9.9.1.7 1.3zm-64.1 2.4c.3.5.2 1.2-.3 1.5-.5.3-.9-.1-.9-.9 0-1.7.3-1.9 1.2-.6zm20.2.6c0 .8-.4 1.2-.9.9-.5-.3-.6-1-.3-1.5.9-1.3 1.2-1.1 1.2.6zM235 150c0 .5-.5 1-1.1 1-.5 0-.7-.5-.4-1 .3-.6.8-1 1.1-1 .2 0 .4.4.4 1zm75.4-.1c.3.5-.2 1.5-1.2 2.2-1.5 1.2-1.6 1.2-.5-.2.7-.9 1-1.9.6-2.2-.3-.4-.4-.7 0-.7.3 0 .8.4 1.1.9zm52.1.1c.3.5.1 1-.4 1-.6 0-1.1-.5-1.1-1 0-.6.2-1 .4-1 .3 0 .8.4 1.1 1zm10.5.5c0 .2-.9.3-1.9.2-1.1 0-1.8-.5-1.5-.9.4-.6 3.4 0 3.4.7zm31 5.2c9.1 12.5 21.9 36.1 23.2 42.7.2 1.6-1.1 2.5-7.5 5.1-4.3 1.7-7.6 3.3-7.3 3.6.2.2-.7.5-2.1.6-1.4 0-2.9.7-3.4 1.4-.4.8-1.4 1.4-2.1 1.4-2.8.2-6.8 1.8-6.3 2.5.3.5 0 1.2-.6 1.6-.8.4-.9.3-.5-.4s.3-1.2-.3-1.2c-.5 0-1.3.4-1.6 1-.3.5-1.5 1-2.6 1-1 0-1.9.4-1.9 1 0 .5-.4 1-1 1-.5 0-.7-.6-.4-1.3.5-1.3 2.3-2.3 16-9.1 10.5-5.1 12.6-7 6.7-6.2-2.1.3-3.2.3-2.5 0 1-.5 1-.9.1-2-.9-1.2-.9-1.3.3-.9 1.4.5 6.6-3.6 5.8-4.6-.2-.2.8-1.7 2.3-3.3 1.5-1.6 2.5-3.1 2.3-3.3-.6-.7-4.9 1.8-6.4 3.6-.8.9-1 1-.7.3.4-.8-1.1-.2-3.4 1.2-2.2 1.4-4.5 2.6-5 2.6s-1.1.6-1.4 1.2c-.3.7-.4-.5-.3-2.7 0-2.2.4-4.2.7-4.5 1.2-1 1.9-7 .8-7-.6 0-.4-.6.4-1.4.8-.9 1.4-3.2 1.3-5.8-.1-4-.3-4.3-2.8-4.3-1.4.1-2.4-.3-2.2-.7.3-.5-.3-1.1-1.3-1.4-1-.3-2.7-1-3.7-1.6-1.6-.9-4.2.1-14 5.1-6.7 3.4-11.3 5.6-10.4 4.8 1-.8 1.5-1.7 1.1-2-.3-.4.1-.7 1-.7.8 0 2.5-1.2 3.6-2.6 1.2-1.5 2.1-2.4 2.1-2 0 .4.6.1 1.4-.6 2.7-2.7 6.6-5.8 7.2-5.8 1.1 0 3.3-2.8 2.7-3.4-.4-.3-.2-.6.4-.6.6 0 1.7-1.5 2.4-3.3 1.5-3.5 3-5.6 4.2-5.7.4 0 2.9 3 5.7 6.7zm-133.5-1.8c-.9.8-3.6 1-3 .2.2-.4 1.1-.8 2-.8.8 0 1.3.3 1 .6zm4.5.1c0 .5-.2 1-.4 1-.3 0-.8-.5-1.1-1-.3-.6-.1-1 .4-1 .6 0 1.1.4 1.1 1zm47.5 0c.3.5.1 1-.4 1-.6 0-1.1-.5-1.1-1 0-.6.2-1 .4-1 .3 0 .8.4 1.1 1zm67.9.2c-.3.4-1.1.5-1.9.1-2.1-.7-1.9-1.2.4-1 1.1 0 1.8.5 1.5.9zm-85.4 1.2c0 .2-.7.7-1.6 1-.8.3-1.2.2-.9-.4.6-1 2.5-1.4 2.5-.6zm-78.5 1.5c.3.5.2 1.2-.3 1.5-.5.3-.9-.1-.9-.9 0-1.7.3-1.9 1.2-.6zm44.1 1.3c.3.4-.1.5-1 .4-.8-.1-1.8-.5-2.2-.8-.3-.4.1-.5 1-.4.8.1 1.8.5 2.2.8zm49.4-.6c0 .8-1.9 1.3-2.4.6-.3-.5.1-.9.9-.9s1.5.2 1.5.3zm19 .4c0 .5-.5 1-1.1 1-.5 0-.7-.5-.4-1 .3-.6.8-1 1.1-1 .2 0 .4.4.4 1zm21.6.2c.3.4-.1.5-1 .4-.8-.1-1.8-.5-2.2-.8-.3-.4.1-.5 1-.4.8.1 1.8.5 2.2.8zm26 1.4c.1.9 0 1.3-.4 1-.3-.4-.7-1.4-.8-2.2-.1-.9 0-1.3.4-1 .3.4.7 1.4.8 2.2zm-52 2c.1.9 0 1.3-.4 1-.3-.4-.7-1.4-.8-2.2-.1-.9 0-1.3.4-1 .3.4.7 1.4.8 2.2zm-16.1-.7c.3.5.2 1.2-.3 1.5-.5.3-.9-.1-.9-.9 0-1.7.3-1.9 1.2-.6zm-44 1c-.9.8-3.6 1-3 .2.2-.4 1.1-.8 2-.8.8 0 1.3.3 1 .6zm108.5.1c0 .5-.2 1-.4 1-.3 0-.8-.5-1.1-1-.3-.6-.1-1 .4-1 .6 0 1.1.4 1.1 1zm-112.5 4c.3.5.1 1-.4 1-.6 0-1.1-.5-1.1-1 0-.6.2-1 .4-1 .3 0 .8.4 1.1 1zm62.1.2c.3.4-.1.5-1 .4-.8-.1-1.8-.5-2.2-.8-.3-.4.1-.5 1-.4.8.1 1.8.5 2.2.8zm39.8 2.4c.3.8.2 1.2-.4.9-.6-.3-1-1-1-1.6 0-1.4.7-1.1 1.4.7zM291 170c0 .5-.2 1-.4 1-.3 0-.8-.5-1.1-1-.3-.6-.1-1 .4-1 .6 0 1.1.4 1.1 1zm-58.9 3.3c-1 .9-1.1.8-.5-.6.3-1 .9-1.5 1.2-1.2.3.3 0 1.1-.7 1.8zm6.2 2.2c-.7 2.1-1.2 1.9-1-.4 0-1.1.5-1.8.9-1.5.4.3.5 1.1.1 1.9zm42.3-1.3c.3.4-.1.5-1 .4-.8-.1-1.8-.5-2.2-.8-.3-.4.1-.5 1-.4.8.1 1.8.5 2.2.8zm87.4-.6c0 .8-1.9 1.3-2.4.6-.3-.5.1-.9.9-.9s1.5.2 1.5.3zm36.5.3c-.9.8-3.6 1-3 .2.2-.4 1.1-.8 2-.8.8 0 1.3.3 1 .6zm-169.9 3.7c.1.9 0 1.3-.4 1-.3-.4-.7-1.4-.8-2.2-.1-.9 0-1.3.4-1 .3.4.7 1.4.8 2.2zm152.1-.1c0 .8-.4 1.2-.9.9-.5-.3-.6-1-.3-1.5.9-1.3 1.2-1.1 1.2.6zm-164.1 1c-.1.8-.5 1.7-.8 2.1-.5.4-.4-1.6.1-3.4.3-.9.9.1.7 1.3zm4.4-.9c0 .8-1.9 1.3-2.4.6-.3-.5.1-.9.9-.9s1.5.2 1.5.3zm47.4.2c.2.4-.5.9-1.7.9-1.7.2-1.9 0-.7-.7 1.8-1.2 1.8-1.2 2.4-.2zm6.1.1c-.9.8-3.6 1-3 .2.2-.4 1.1-.8 2-.8.8 0 1.3.3 1 .6zm12.1.3c.3.4-.1.5-1 .4-.8-.1-1.8-.5-2.2-.8-.3-.4.1-.5 1-.4.8.1 1.8.5 2.2.8zm14.1.3c0 .8-.4 1.2-.9.9-.5-.3-.6-1-.3-1.5.9-1.3 1.2-1.1 1.2.6zm-8.1 2c-.1.8-.5 1.7-.8 2.1-.5.4-.4-1.6.1-3.4.3-.9.9.1.7 1.3zm64 0c-.1.8-.5 1.7-.8 2.1-.5.4-.4-1.6.1-3.4.3-.9.9.1.7 1.3zM271 182c0 .5-.5 1-1.1 1-.5 0-.7-.5-.4-1 .3-.6.8-1 1.1-1 .2 0 .4.4.4 1zm35.4-.2c.3.5-.1.9-.9.9s-1.2-.4-.9-.9c.3-.4.7-.8.9-.8.2 0 .6.4.9.8zm80.2.7c-.1.8-.5 1.7-.8 2.1-.5.4-.4-1.6.1-3.4.3-.9.9.1.7 1.3zm9.9-.6c-.9.8-3.6 1-3 .2.2-.4 1.1-.8 2-.8.8 0 1.3.3 1 .6zm6 0c.3.5.2 1.2-.3 1.5-.5.3-.9-.1-.9-.9 0-1.7.3-1.9 1.2-.6zm-108.4 2.8c1.3 1.6 1.2 1.7-.3.4-1-.7-1.8-1.5-1.8-1.7 0-.8.8-.3 2.1 1.3zm64.2-.2c.4.8.3 1.6-.1 1.9-.4.3-.9-.4-.9-1.5-.2-2.3.3-2.5 1-.4zm24.3 0c-.1.8-.5 1.7-.8 2.1-.5.4-.4-1.6.1-3.4.3-.9.9.1.7 1.3zm-99.9 1c0 .8-.4 1.2-.9.9-.5-.3-.6-1-.3-1.5.9-1.3 1.2-1.1 1.2.6zm-68.1.7c.3.4-.1.5-1 .4-.8-.1-1.8-.5-2.2-.8-.3-.4.1-.5 1-.4.8.1 1.8.5 2.2.8zm6 0c.3.4-.1.5-1 .4-.8-.1-1.8-.5-2.2-.8-.3-.4.1-.5 1-.4.8.1 1.8.5 2.2.8zm53.9-.2c.3.5.1 1-.4 1-.6 0-1.1-.5-1.1-1 0-.6.2-1 .4-1 .3 0 .8.4 1.1 1zm-49.5 1.6c0 .8-1.9 1.3-2.4.6-.3-.5.1-.9.9-.9s1.5.2 1.5.3zm128 .3c0 .6-.4 1.2-.8 1.5-.5.3-.9-.1-.9-.9s.4-1.5.9-1.5c.4 0 .8.4.8.9zm24 0c0 .6-.4 1.2-.8 1.5-.5.3-.9-.1-.9-.9s.4-1.5.9-1.5c.4 0 .8.4.8.9zm-108 1.7c0 .8-1.9 1.3-2.4.6-.3-.5.1-.9.9-.9s1.5.2 1.5.3zm41.5.3c-.9.8-3.6 1-3 .2.2-.4 1.1-.8 2-.8.8 0 1.3.3 1 .6zm4.9-.1c.3.5-.1.9-.9.9s-1.2-.4-.9-.9c.3-.4.7-.8.9-.8.2 0 .6.4.9.8zm31.3 1.4c.2 1.7 0 1.9-.7.8-.5-.8-.6-1.8-.4-2.2.8-1.2 1-1 1.1 1.4zm23.8-1.2c.3.5.1 1-.4 1-.6 0-1.1-.5-1.1-1 0-.6.2-1 .4-1 .3 0 .8.4 1.1 1zm26.5 2c0 .5-.5 1-1.1 1-.5 0-.7-.5-.4-1 .3-.6.8-1 1.1-1 .2 0 .4.4.4 1zm-126.4 2.2c.3.4-.1.5-1 .4-.8-.1-1.8-.5-2.2-.8-.3-.4.1-.5 1-.4.8.1 1.8.5 2.2.8zm6 0c.3.4-.1.5-1 .4-.8-.1-1.8-.5-2.2-.8-.3-.4.1-.5 1-.4.8.1 1.8.5 2.2.8zm6 2.3c-.1.8-.5 1.7-.8 2.1-.5.4-.4-1.6.1-3.4.3-.9.9.1.7 1.3zm84.4.9c0 .3-.4.8-1 1.1-.5.3-1 .1-1-.4 0-.6.5-1.1 1-1.1.6 0 1 .2 1 .4zm27.4.8c-.3.4-1.1.5-1.9.1-2.1-.7-1.9-1.2.4-1 1.1 0 1.8.5 1.5.9zm8.1-.3c-.8.7-4.5.9-5 .1-.2-.3.9-.6 2.5-.6 1.7 0 2.7.2 2.5.5zm92.2 1c0 1.1-.5 1.8-.9 1.5-.4-.3-.5-1.1-.1-1.9.7-2.1 1.2-1.9 1 .4zm12 .3c.2 1.7 0 1.9-.7.8-.5-.8-.6-1.8-.4-2.2.8-1.2 1-1 1.1 1.4zm-149.1 1c.3.4-.1.5-1 .4-.8-.1-1.8-.5-2.2-.8-.3-.4.1-.5 1-.4.8.1 1.8.5 2.2.8zm-126.9 1.3c0 .8-.4 1.2-.9.9-.5-.3-.6-1-.3-1.5.9-1.3 1.2-1.1 1.2.6zm3.9 1c-.1.8-.5 1.7-.8 2.1-.5.4-.4-1.6.1-3.4.3-.9.9.1.7 1.3zm42.4-1c0 .7-3 1.3-3.4.7-.3-.4.4-.9 1.5-.9 1-.1 1.9 0 1.9.2zm5.6 1c-.1.8-.5 1.7-.8 2.1-.5.4-.4-1.6.1-3.4.3-.9.9.1.7 1.3zm55.4-1.1c0 .2-.8 1-1.7 1.7-1.6 1.3-1.7 1.2-.4-.4 1.3-1.6 2.1-2.1 2.1-1.3zm153 .2c0 .8-1.9 1.3-2.4.6-.3-.5.1-.9.9-.9s1.5.2 1.5.3zm11.6 2c.1.9 0 1.3-.4 1-.3-.4-.7-1.4-.8-2.2-.1-.9 0-1.3.4-1 .3.4.7 1.4.8 2.2zm-20 2c.1.9 0 1.3-.4 1-.3-.4-.7-1.4-.8-2.2-.1-.9 0-1.3.4-1 .3.4.7 1.4.8 2.2zm-284.1-.7c.3.5.2 1.2-.3 1.5-.5.3-.9-.1-.9-.9 0-1.7.3-1.9 1.2-.6zm190.2.6c0 .8-.4 1.2-.9.9-.5-.3-.6-1-.3-1.5.9-1.3 1.2-1.1 1.2.6zm41.9 2.8l1.1 3.2-8 4.4c-5.2 2.8-10.5 4.9-15 5.7-3.9.8-7.2 1.2-7.4 1.1-.1-.2.6-1.1 1.7-2 1.1-.9 2-1.4 2-1.1 0 .3.6-.1 1.4-.8 2.5-2.4 6.9-5.3 7.4-5 .3.2.9-.3 1.4-1.2.5-.9 1.3-1.4 1.9-1.1.5.4.9.1.9-.4 0-.6.6-1.1 1.4-1.1.8 0 1.6-.3 1.8-.8.5-1.2 7.2-5.1 7.8-4.6.3.3 1 2 1.6 3.7zm-211.9-1.8c0 .8-.4 1.2-.9.9-.5-.3-.6-1-.3-1.5.9-1.3 1.2-1.1 1.2.6zm136.3-.9c0 .8-1.9 1.3-2.4.6-.3-.5.1-.9.9-.9s1.5.2 1.5.3zm5 0c0 .8-1.9 1.3-2.4.6-.3-.5.1-.9.9-.9s1.5.2 1.5.3zm18.6.6c.3.4-.1.5-1 .4-.8-.1-1.8-.5-2.2-.8-.3-.4.1-.5 1-.4.8.1 1.8.5 2.2.8zm4.4-.2c0 .5-.2 1-.4 1-.3 0-.8-.5-1.1-1-.3-.6-.1-1 .4-1 .6 0 1.1.4 1.1 1zm35.7.9c0 1.1-.5 1.8-.9 1.5-.4-.3-.5-1.1-.1-1.9.7-2.1 1.2-1.9 1 .4zm-220.1 3.6c-.1.8-.5 1.7-.8 2.1-.5.4-.4-1.6.1-3.4.3-.9.9.1.7 1.3zm41.4-.9c0 .8-1.9 1.3-2.4.6-.3-.5.1-.9.9-.9s1.5.2 1.5.3zm96 0c0 .8-1.9 1.3-2.4.6-.3-.5.1-.9.9-.9s1.5.2 1.5.3zm6.6.9c-.1.8-.5 1.7-.8 2.1-.5.4-.4-1.6.1-3.4.3-.9.9.1.7 1.3zm22-.3c.3.4-.1.5-1 .4-.8-.1-1.8-.5-2.2-.8-.3-.4.1-.5 1-.4.8.1 1.8.5 2.2.8zm9.9-.3c-.9.8-3.6 1-3 .2.2-.4 1.1-.8 2-.8.8 0 1.3.3 1 .6zm36.5-.3c0 .8-1.9 1.3-2.4.6-.3-.5.1-.9.9-.9s1.5.2 1.5.3zm65.6.6c.3.4-.1.5-1 .4-.8-.1-1.8-.5-2.2-.8-.3-.4.1-.5 1-.4.8.1 1.8.5 2.2.8zm3.5 2.5c1.3 1.6 1.2 1.7-.3.4-1.7-1.3-2.2-2.1-1.4-2.1.2 0 1 .8 1.7 1.7zm18.5.9c.1.9 0 1.3-.4 1-.3-.4-.7-1.4-.8-2.2-.1-.9 0-1.3.4-1 .3.4.7 1.4.8 2.2zm-269.6-.2c0 .3-.4.8-1 1.1-.5.3-1 .1-1-.4 0-.6.5-1.1 1-1.1.6 0 1 .2 1 .4zm41.5.6c.3.5.1 1-.4 1-.6 0-1.1-.5-1.1-1 0-.6.2-1 .4-1 .3 0 .8.4 1.1 1zm8.5-.6c0 .3-.4.8-1 1.1-.5.3-1 .1-1-.4 0-.6.5-1.1 1-1.1.6 0 1 .2 1 .4zm5.5.5c-.9.8-3.6 1-3 .2.2-.4 1.1-.8 2-.8.8 0 1.3.3 1 .6zm80 0c-.9.8-3.6 1-3 .2.2-.4 1.1-.8 2-.8.8 0 1.3.3 1 .6zm6 0c.3.5.2 1.2-.3 1.5-.5.3-.9-.1-.9-.9 0-1.7.3-1.9 1.2-.6zm36.2.6c0 .8-.4 1.2-.9.9-.5-.3-.6-1-.3-1.5.9-1.3 1.2-1.1 1.2.6zm26.2 5.2c.1 2.4-.4 3.3-2 3.8-1.7.6-1.8.9-.7 2.2 1.2 1.5 1.1 1.5-.8.3-1.9-1.1-2.5-1-5.2.8-1.6 1.2-3.5 2.2-4.1 2.2-.6 0-1.1.4-1.1 1 0 .5-.3.9-.7.8-1.4-.4-17.3 7.9-16.6 8.6.4.4 0 .4-1 .1-2.5-1-1.9-9.5.8-9.5.7 0 1.5-.3 1.7-.8.2-.4 2-1.5 4.1-2.5 2.1-.9 3.6-2.1 3.3-2.5-.2-.4.3-.8 1.2-.9 2.5-.1 8.6-2.6 9.7-4 .6-.7 3-2.3 5.5-3.7 4.1-2.3 4.6-2.4 5.2-.8.4.9.7 3.1.7 4.9zm33.7-4.1c.1.9 0 1.3-.4 1-.3-.4-.7-1.4-.8-2.2-.1-.9 0-1.3.4-1 .3.4.7 1.4.8 2.2zM487 214c0 .5-.2 1-.4 1-.3 0-.8-.5-1.1-1-.3-.6-.1-1 .4-1 .6 0 1.1.4 1.1 1zm8.4-.2c.3.5-.1.9-.9.9s-1.2-.4-.9-.9c.3-.4.7-.8.9-.8.2 0 .6.4.9.8zm-12.8 3.8c.1.9 0 1.3-.4 1-.3-.4-.7-1.4-.8-2.2-.1-.9 0-1.3.4-1 .3.4.7 1.4.8 2.2zm-294.1.3c-.9.8-3.6 1-3 .2.2-.4 1.1-.8 2-.8.8 0 1.3.3 1 .6zm46.1 1.7c.1.9 0 1.3-.4 1-.3-.4-.7-1.4-.8-2.2-.1-.9 0-1.3.4-1 .3.4.7 1.4.8 2.2zm107.8-1.4c-.3.4-1.1.5-1.9.1-2.1-.7-1.9-1.2.4-1 1.1 0 1.8.5 1.5.9zm4.6-.2c0 .5-.2 1-.4 1-.3 0-.8-.5-1.1-1-.3-.6-.1-1 .4-1 .6 0 1.1.4 1.1 1zm155.6 1.6c.1.9 0 1.3-.4 1-.3-.4-.7-1.4-.8-2.2-.1-.9 0-1.3.4-1 .3.4.7 1.4.8 2.2zm-224 2c.1.9 0 1.3-.4 1-.3-.4-.7-1.4-.8-2.2-.1-.9 0-1.3.4-1 .3.4.7 1.4.8 2.2zm4-1.1c-.1.8-.5 1.7-.8 2.1-.5.4-.4-1.6.1-3.4.3-.9.9.1.7 1.3zm4 1.1c.1.9 0 1.3-.4 1-.3-.4-.7-1.4-.8-2.2-.1-.9 0-1.3.4-1 .3.4.7 1.4.8 2.2zm96-1.1c-.1.8-.5 1.7-.8 2.1-.5.4-.4-1.6.1-3.4.3-.9.9.1.7 1.3zm5.5.8c-1 .9-1.1.8-.5-.6.3-1 .9-1.5 1.2-1.2.3.3 0 1.1-.7 1.8zm74.5-.8c-.1.8-.5 1.7-.8 2.1-.5.4-.4-1.6.1-3.4.3-.9.9.1.7 1.3zm8 0c-.1.8-.5 1.7-.8 2.1-.5.4-.4-1.6.1-3.4.3-.9.9.1.7 1.3zm-260.1 1.4c-.9.8-3.6 1-3 .2.2-.4 1.1-.8 2-.8.8 0 1.3.3 1 .6zm268.5-.5c0 .3-.4.8-1 1.1-.5.3-1 .1-1-.4 0-.6.5-1.1 1-1.1.6 0 1 .2 1 .4zm3.7 1.8c.2 1.7 0 1.9-.7.8-.5-.8-.6-1.8-.4-2.2.8-1.2 1-1 1.1 1.4zm9.3-1.6c0 .8-1.9 1.3-2.4.6-.3-.5.1-.9.9-.9s1.5.2 1.5.3zm2.6 2.3c0 1.7-.3 2.8-.6 2.6-.5-.3-.6-3.8-.1-5.3.4-1 .7.3.7 2.7zm-309.1.1c.3.6-.1.7-.9.4-1.8-.7-2.1-1.4-.7-1.4.6 0 1.3.4 1.6 1zm117.2 1.5c0 .8-.4 1.2-.9.9-.5-.3-.6-1-.3-1.5.9-1.3 1.2-1.1 1.2.6zm47.8-.6c.3.5.2 1.2-.3 1.5-.5.3-.9-.1-.9-.9 0-1.7.3-1.9 1.2-.6zm53.8 1.7c-2.8 1.4-6.1 2.7-7.3 2.9-1.2.2-2.8.9-3.5 1.5-1.1.9-1.2.7-.8-.8.3-1.3 2.4-2.5 6.6-3.9 8.7-2.8 11.2-2.7 5 .3zM183 226c0 .5-.2 1-.4 1-.3 0-.8-.5-1.1-1-.3-.6-.1-1 .4-1 .6 0 1.1.4 1.1 1zm10-.5c0 .7-3 1.3-3.4.7-.3-.4.4-.9 1.5-.9 1-.1 1.9 0 1.9.2zm19.6.7c.3.4-.1.5-1 .4-.8-.1-1.8-.5-2.2-.8-.3-.4.1-.5 1-.4.8.1 1.8.5 2.2.8zm57.9-.3c.3.5.2 1.2-.3 1.5-.5.3-.9-.1-.9-.9 0-1.7.3-1.9 1.2-.6zm4.1.6c-.1.8-.5 1.7-.8 2.1-.5.4-.4-1.6.1-3.4.3-.9.9.1.7 1.3zm8.1 0c0 .8-.4 1.2-.9.9-.5-.3-.6-1-.3-1.5.9-1.3 1.2-1.1 1.2.6zm83.9 1.1c.1.9 0 1.3-.4 1-.3-.4-.7-1.4-.8-2.2-.1-.9 0-1.3.4-1 .3.4.7 1.4.8 2.2zm96-1.1c-.1.8-.5 1.7-.8 2.1-.5.4-.4-1.6.1-3.4.3-.9.9.1.7 1.3zm8.1.7c.2 1.7 0 1.9-.7.8-.5-.8-.6-1.8-.4-2.2.8-1.2 1-1 1.1 1.4zm7.9-.7c-.1.8-.5 1.7-.8 2.1-.5.4-.4-1.6.1-3.4.3-.9.9.1.7 1.3zM206.5 230c.3.5.1 1-.4 1-.6 0-1.1-.5-1.1-1 0-.6.2-1 .4-1 .3 0 .8.4 1.1 1zm65.6.7c1.2 1.6 1.2 1.7-.2.6-.9-.7-2-.9-2.4-.5-.5.4-.5.1-.1-.6.9-1.6 1.1-1.5 2.7.5zm10.3-.9c.3.5-.1.9-.9.9s-1.2-.4-.9-.9c.3-.4.7-.8.9-.8.2 0 .6.4.9.8zm8.2.7c-.1.8-.5 1.7-.8 2.1-.5.4-.4-1.6.1-3.4.3-.9.9.1.7 1.3zm60 1.1c.1.9 0 1.3-.4 1-.3-.4-.7-1.4-.8-2.2-.1-.9 0-1.3.4-1 .3.4.7 1.4.8 2.2zm95.9-1.7c.3.5.2 1.2-.3 1.5-.5.3-.9-.1-.9-.9 0-1.7.3-1.9 1.2-.6zm3.9-.1c.3.5-.1.9-.9.9s-1.2-.4-.9-.9c.3-.4.7-.8.9-.8.2 0 .6.4.9.8zm32.6.2c0 .5-.5 1-1.1 1-.5 0-.7-.5-.4-1 .3-.6.8-1 1.1-1 .2 0 .4.4.4 1zm-196.3 2.9c0 1.1-.5 1.8-.9 1.5-.4-.3-.5-1.1-.1-1.9.7-2.1 1.2-1.9 1 .4zm-104 .6c0 .8-.4 1.2-.9.9-.5-.3-.6-1-.3-1.5.9-1.3 1.2-1.1 1.2.6zm199.8-.6c.3.5.2 1.2-.3 1.5-.5.3-.9-.1-.9-.9 0-1.7.3-1.9 1.2-.6zm40.2.6c0 .8-.4 1.2-.9.9-.5-.3-.6-1-.3-1.5.9-1.3 1.2-1.1 1.2.6zm-144.2.5c.3.5.1 1-.4 1-.6 0-1.1-.5-1.1-1 0-.6.2-1 .4-1 .3 0 .8.4 1.1 1zm68.5-.4c0 .8-1.9 1.3-2.4.6-.3-.5.1-.9.9-.9s1.5.2 1.5.3zm72.4.2c.3.5-.1.9-.9.9s-1.2-.4-.9-.9c.3-.4.7-.8.9-.8.2 0 .6.4.9.8zm29.6.7c0 .2-.9.3-1.9.2-1.1 0-1.8-.5-1.5-.9.4-.6 3.4 0 3.4.7zm11.6-.3c.3.4-.1.5-1 .4-.8-.1-1.8-.5-2.2-.8-.3-.4.1-.5 1-.4.8.1 1.8.5 2.2.8zm10 0c.3.4-.1.5-1 .4-.8-.1-1.8-.5-2.2-.8-.3-.4.1-.5 1-.4.8.1 1.8.5 2.2.8zm6 0c.3.4-.1.5-1 .4-.8-.1-1.8-.5-2.2-.8-.3-.4.1-.5 1-.4.8.1 1.8.5 2.2.8zm11.4-.6c0 .8-1.9 1.3-2.4.6-.3-.5.1-.9.9-.9s1.5.2 1.5.3zm7 .4c0 .5-.2 1-.4 1-.3 0-.8-.5-1.1-1-.3-.6-.1-1 .4-1 .6 0 1.1.4 1.1 1zm-104.4 2.5c-.1.8-.5 1.7-.8 2.1-.5.4-.4-1.6.1-3.4.3-.9.9.1.7 1.3zm90.4-.9c0 .8-1.9 1.3-2.4.6-.3-.5.1-.9.9-.9s1.5.2 1.5.3zm-48 .8c0 .2-.6.9-1.4 1.5-1.1.9-1.6.9-2.2 0-.4-.7-.3-.9.4-.5.6.3 1.3.2 1.7-.4.6-1 1.5-1.4 1.5-.6zm-278.5 1.5c-.9.8-3.6 1-3 .2.2-.4 1.1-.8 2-.8.8 0 1.3.3 1 .6zm70 0c-.9.8-3.6 1-3 .2.2-.4 1.1-.8 2-.8.8 0 1.3.3 1 .6zm10.2.6c0 .8-.4 1.2-.9.9-.5-.3-.6-1-.3-1.5.9-1.3 1.2-1.1 1.2.6zm9.9-.3c.3.4-.1.5-1 .4-.8-.1-1.8-.5-2.2-.8-.3-.4.1-.5 1-.4.8.1 1.8.5 2.2.8zm166 2.4c0 1.3-.2 2.2-.5 1.9-.3-.3-.6-1.7-.7-3.1 0-1.3.2-2.2.5-1.9.3.3.6 1.7.7 3.1zm-184 1c.1.9 0 1.3-.4 1-.3-.4-.7-1.4-.8-2.2-.1-.9 0-1.3.4-1 .3.4.7 1.4.8 2.2zm12.1-.7c0 1.1-.5 1.8-.9 1.5-.4-.3-.5-1.1-.1-1.9.7-2.1 1.2-1.9 1 .4zm242-.4c0 .8-.4 1.2-.9.9-.5-.3-.6-1-.3-1.5.9-1.3 1.2-1.1 1.2.6zm-290.2.4c.3.5.2 1.2-.3 1.5-.5.3-.9-.1-.9-.9 0-1.7.3-1.9 1.2-.6zm14.1 1.3c.3.4-.1.5-1 .4-.8-.1-1.8-.5-2.2-.8-.3-.4.1-.5 1-.4.8.1 1.8.5 2.2.8zm9.9-.3c-.9.8-3.6 1-3 .2.2-.4 1.1-.8 2-.8.8 0 1.3.3 1 .6zm20.9-.1c.3.5-.1.9-.9.9s-1.2-.4-.9-.9c.3-.4.7-.8.9-.8.2 0 .6.4.9.8zm227.2.4c.3.4-.1.5-1 .4-.8-.1-1.8-.5-2.2-.8-.3-.4.1-.5 1-.4.8.1 1.8.5 2.2.8zm12 0c.3.4-.1.5-1 .4-.8-.1-1.8-.5-2.2-.8-.3-.4.1-.5 1-.4.8.1 1.8.5 2.2.8zM209 244c0 .5-.4 1-1 1-.5 0-1-.5-1-1 0-.6.5-1 1-1 .6 0 1 .4 1 1zm227.1 1.3c-1 .9-1.1.8-.5-.6.3-1 .9-1.5 1.2-1.2.3.3 0 1.1-.7 1.8zm-269.5.9c.3.4-.1.5-1 .4-.8-.1-1.8-.5-2.2-.8-.3-.4.1-.5 1-.4.8.1 1.8.5 2.2.8zm6 0c.3.4-.1.5-1 .4-.8-.1-1.8-.5-2.2-.8-.3-.4.1-.5 1-.4.8.1 1.8.5 2.2.8zm17.9-.3c.3.5.2 1.2-.3 1.5-.5.3-.9-.1-.9-.9 0-1.7.3-1.9 1.2-.6zm4.1 1.7c.1.9 0 1.3-.4 1-.3-.4-.7-1.4-.8-2.2-.1-.9 0-1.3.4-1 .3.4.7 1.4.8 2.2zm4.4-2c0 .8-1.9 1.3-2.4.6-.3-.5.1-.9.9-.9s1.5.2 1.5.3zm21 0c0 .8-1.9 1.3-2.4.6-.3-.5.1-.9.9-.9s1.5.2 1.5.3zm2.6.9c-.1.8-.5 1.7-.8 2.1-.5.4-.4-1.6.1-3.4.3-.9.9.1.7 1.3zm4 0c-.1.8-.5 1.7-.8 2.1-.5.4-.4-1.6.1-3.4.3-.9.9.1.7 1.3zm243.9-.5c.3.5.1 1-.4 1-.6 0-1.1-.5-1.1-1 0-.6.2-1 .4-1 .3 0 .8.4 1.1 1zm-340.8 5.8l-4.7 4.8-17.3.2c-17.4.2-32.3-.5-31.3-1.6.5-.5 8.1-1.5 26.6-3.8 2.5-.3 5.6-.7 7-.9 1.4-.3 5-.7 8-1.1 3-.4 7.5-1 10-1.4 2.5-.4 4.9-.8 5.5-.9.5 0-1.2 2.1-3.8 4.7zM143 250c0 .5-.5 1-1.1 1-.5 0-.7-.5-.4-1 .3-.6.8-1 1.1-1 .2 0 .4.4.4 1zm3.4-.2c.3.5-.1.9-.9.9s-1.2-.4-.9-.9c.3-.4.7-.8.9-.8.2 0 .6.4.9.8zm6.6.7c0 .2-.9.3-1.9.2-1.1 0-1.8-.5-1.5-.9.4-.6 3.4 0 3.4.7zm6.4-.7c.3.5-.1.9-.9.9s-1.2-.4-.9-.9c.3-.4.7-.8.9-.8.2 0 .6.4.9.8zm19.6-.4c0 .3-.4.8-1 1.1-.5.3-1 .1-1-.4 0-.6.5-1.1 1-1.1.6 0 1 .2 1 .4zm7.6.8c.4.7.4 1-.1.6-.4-.4-1.5-.2-2.4.5-1.4 1.1-1.4 1-.2-.6 1.6-2 1.8-2.1 2.7-.5zm4.8-.4c.3.5-.1.9-.9.9s-1.2-.4-.9-.9c.3-.4.7-.8.9-.8.2 0 .6.4.9.8zm39.6.2c0 .5-.5 1-1.1 1-.5 0-.7-.5-.4-1 .3-.6.8-1 1.1-1 .2 0 .4.4.4 1zm9-.4c0 .8-1.9 1.3-2.4.6-.3-.5.1-.9.9-.9s1.5.2 1.5.3zm16 0c0 .8-1.9 1.3-2.4.6-.3-.5.1-.9.9-.9s1.5.2 1.5.3zm-93.4 2.9c-.1.8-.5 1.7-.8 2.1-.5.4-.4-1.6.1-3.4.3-.9.9.1.7 1.3zm36 0c-.1.8-.5 1.7-.8 2.1-.5.4-.4-1.6.1-3.4.3-.9.9.1.7 1.3zm20 1.1c.1.9 0 1.3-.4 1-.3-.4-.7-1.4-.8-2.2-.1-.9 0-1.3.4-1 .3.4.7 1.4.8 2.2zm57.5-.3c-1 .9-1.1.8-.5-.6.3-1 .9-1.5 1.2-1.2.3.3 0 1.1-.7 1.8zM171 254c0 .5-.2 1-.4 1-.3 0-.8-.5-1.1-1-.3-.6-.1-1 .4-1 .6 0 1.1.4 1.1 1zm36 0c0 .5-.2 1-.4 1-.3 0-.8-.5-1.1-1-.3-.6-.1-1 .4-1 .6 0 1.1.4 1.1 1zm4-.6c0 .3-.4.8-1 1.1-.5.3-1 .1-1-.4 0-.6.5-1.1 1-1.1.6 0 1 .2 1 .4zm27.6 5.1c-.1.8-.5 1.7-.8 2.1-.5.4-.4-1.6.1-3.4.3-.9.9.1.7 1.3zm64.1.9c0 .8-.3 1.4-.6 1.3-.3-.1-2.4 1.2-4.6 2.8-6.3 4.7-6.5 5-5.2 6.6.9.9.7.9-.7-.1-1.6-1.2-2-1.2-3 .1-.6.8-1.9 1.8-2.9 2.2-1.1.4-1.5 1.2-1.1 1.9.4.7.4 1-.1.6-.4-.4-1.5-.2-2.4.5-2.3 1.8 2.9-5.4 6.1-8.5 1.5-1.4 2.8-2.4 2.8-2 0 .3.9-.3 2.1-1.4 1.6-1.4 6.2-4 9.5-5.4 0 0 .1.6.1 1.4zm4 2.1c0 .8-.4 1.2-.9.9-.5-.3-.6-1-.3-1.5.9-1.3 1.2-1.1 1.2.6zm24 0c0 .8-.4 1.2-.9.9-.5-.3-.6-1-.3-1.5.9-1.3 1.2-1.1 1.2.6zm24 0c0 .8-.4 1.2-.9.9-.5-.3-.6-1-.3-1.5.9-1.3 1.2-1.1 1.2.6zm-36.1.7c.3.4-.1.5-1 .4-.8-.1-1.8-.5-2.2-.8-.3-.4.1-.5 1-.4.8.1 1.8.5 2.2.8zm5.4-.6c0 .8-1.9 1.3-2.4.6-.3-.5.1-.9.9-.9s1.5.2 1.5.3zm2.7.9c0 .8-.4 1.2-.9.9-.5-.3-.6-1-.3-1.5.9-1.3 1.2-1.1 1.2.6zm15.9-.3c.3.4-.1.5-1 .4-.8-.1-1.8-.5-2.2-.8-.3-.4.1-.5 1-.4.8.1 1.8.5 2.2.8zm6 0c.3.4-.1.5-1 .4-.8-.1-1.8-.5-2.2-.8-.3-.4.1-.5 1-.4.8.1 1.8.5 2.2.8zm-37.9 5c.2 1.7 0 1.9-.7.8-.5-.8-.6-1.8-.4-2.2.8-1.2 1-1 1.1 1.4zm7.8-1.3c-.9.8-3.6 1-3 .2.2-.4 1.1-.8 2-.8.8 0 1.3.3 1 .6zm16.5.1c0 .5-.5 1-1.1 1-.5 0-.7-.5-.4-1 .3-.6.8-1 1.1-1 .2 0 .4.4.4 1zm19.6 1.6c.1.9 0 1.3-.4 1-.3-.4-.7-1.4-.8-2.2-.1-.9 0-1.3.4-1 .3.4.7 1.4.8 2.2zM383 266c0 .5-.5 1-1.1 1-.5 0-.7-.5-.4-1 .3-.6.8-1 1.1-1 .2 0 .4.4.4 1zm19.7.5c0 .8-.4 1.2-.9.9-.5-.3-.6-1-.3-1.5.9-1.3 1.2-1.1 1.2.6zm-104.1 2c-.1.8-.5 1.7-.8 2.1-.5.4-.4-1.6.1-3.4.3-.9.9.1.7 1.3zm40 0c-.1.8-.5 1.7-.8 2.1-.5.4-.4-1.6.1-3.4.3-.9.9.1.7 1.3zm7.7 0c.4.8.3 1.6-.1 1.9-.4.3-.9-.4-.9-1.5-.2-2.3.3-2.5 1-.4zm92.4 1c0 .8-.4 1.2-.9.9-.5-.3-.6-1-.3-1.5.9-1.3 1.2-1.1 1.2.6zm-180.3.3c.3.5-.1.9-.9.9s-1.2-.4-.9-.9c.3-.4.7-.8.9-.8.2 0 .6.4.9.8zm12.1.1c-.9.8-3.6 1-3 .2.2-.4 1.1-.8 2-.8.8 0 1.3.3 1 .6zm54.1.3c.3.4-.1.5-1 .4-.8-.1-1.8-.5-2.2-.8-.3-.4.1-.5 1-.4.8.1 1.8.5 2.2.8zm41.9-.3c-.9.8-3.6 1-3 .2.2-.4 1.1-.8 2-.8.8 0 1.3.3 1 .6zm8.5.1c0 .5-.5 1-1.1 1-.5 0-.7-.5-.4-1 .3-.6.8-1 1.1-1 .2 0 .4.4.4 1zm-18.2 2.5c-.3.3-.9-.2-1.2-1.2-.6-1.4-.5-1.5.5-.6.7.7 1 1.5.7 1.8zm-42.1 1c0 .8-.4 1.2-.9.9-.5-.3-.6-1-.3-1.5.9-1.3 1.2-1.1 1.2.6zm95.8-.6c.3.5.2 1.2-.3 1.5-.5.3-.9-.1-.9-.9 0-1.7.3-1.9 1.2-.6zm-288 1c-.9.8-3.6 1-3 .2.2-.4 1.1-.8 2-.8.8 0 1.3.3 1 .6zm207.9.3c-.3.4-1.1.5-1.9.1-2.1-.7-1.9-1.2.4-1 1.1 0 1.8.5 1.5.9zm16.1-.3c.3.5.2 1.2-.3 1.5-.5.3-.9-.1-.9-.9 0-1.7.3-1.9 1.2-.6zm80 0c-.9.8-3.6 1-3 .2.2-.4 1.1-.8 2-.8.8 0 1.3.3 1 .6zm8.1.6c-.1.8-.5 1.7-.8 2.1-.5.4-.4-1.6.1-3.4.3-.9.9.1.7 1.3zm-128 3.1c.1.9 0 1.3-.4 1-.3-.4-.7-1.4-.8-2.2-.1-.9 0-1.3.4-1 .3.4.7 1.4.8 2.2zm19.4-2.2c0 .2-.8 1-1.7 1.7-1.6 1.3-1.7 1.2-.4-.4 1.3-1.6 2.1-2.1 2.1-1.3zm76.6 2.2c.1.9 0 1.3-.4 1-.3-.4-.7-1.4-.8-2.2-.1-.9 0-1.3.4-1 .3.4.7 1.4.8 2.2zm27.9-1.6c.3.5.1 1-.4 1-.6 0-1.1-.5-1.1-1 0-.6.2-1 .4-1 .3 0 .8.4 1.1 1zm-344.3 2.4c4.5 2.2 6.6 5.2 7.2 10.2.6 6.1.2 6.4-8 6.4-4.1 0-7.4-.3-7.5-.8 0-.4-.2-1.6-.4-2.7s-.6-5.1-.9-8.8l-.5-6.8 3.2.3c1.8.2 4.9 1.2 6.9 2.2zm48.3-1.5c.3.5.2 1.2-.3 1.5-.5.3-.9-.1-.9-.9 0-1.7.3-1.9 1.2-.6zm24.2.6c0 .8-.4 1.2-.9.9-.5-.3-.6-1-.3-1.5.9-1.3 1.2-1.1 1.2.6zm85.8-.6c.3.5.2 1.2-.3 1.5-.5.3-.9-.1-.9-.9 0-1.7.3-1.9 1.2-.6zm54 .3c.5-.4.5-.1.1.6-.6 1-1.1 1-2.2.1-.8-.6-1.4-1.4-1.4-1.6 0-.3.6 0 1.3.6.8.6 1.8.7 2.2.3zm-148.1.7c.3.5-.2 1.5-1.2 2.2-1.5 1.2-1.6 1.2-.5-.2.7-.9 1-1.9.6-2.2-.3-.4-.4-.7 0-.7.3 0 .8.4 1.1.9zm140.1.1c.3.5.1 1-.4 1-.6 0-1.1-.5-1.1-1 0-.6.2-1 .4-1 .3 0 .8.4 1.1 1zm13.5-.4c0 .8-1.9 1.3-2.4.6-.3-.5.1-.9.9-.9s1.5.2 1.5.3zm107 .4c0 .5-.5 1-1.1 1-.5 0-.7-.5-.4-1 .3-.6.8-1 1.1-1 .2 0 .4.4.4 1zm-133.4 1.2c.4.6.3.8-.3.5-1.2-.8-6.5 3.8-5.5 4.8.4.5.2.5-.4.2-1.2-.7-3 .6-10.6 7.7-2.5 2.4-4.4 4.7-4.1 5 .4.3-.1.6-1 .6s-1.7.4-1.7 1c0 .5 2.1 0 4.6-1.1 4.2-1.7 7.5-1.8 4.7-.1-1.2.8-10.5 8.7-14.2 12-1.4 1.3-2.6 2.8-2.6 3.2 0 .5-.4 1.2-.9 1.7-.5.4-.6.3-.3-.3.4-.7 0-1.4-.8-1.8-.8-.3-1.5-1.7-1.5-3.1 0-1.4-.7-4-1.6-5.6-1.4-2.9-1.4-3.2.3-4.5 1-.7 3-1.9 4.6-2.6 1.5-.7 2.7-1.5 2.7-1.8 0-.3 1.6-1.4 3.5-2.4 1.9-1.1 3.5-2.3 3.5-2.8s.4-.7.8-.4c.5.3 1.6-.4 2.5-1.5.9-1 2.3-1.9 3.1-1.9.8 0 1.8-.5 2.2-1.2.5-.7.2-.8-.7-.3-.8.5-1.1.4-.6-.1.5-.5 1.2-.9 1.5-1 1.1-.1 8.5-3.3 10.2-4.4.8-.5 1.6-.9 1.7-.9.1-.1.5.4.9 1.1zm158.5 6.8c-1.4 6.3-2 7.2-5.8 10.1l-4.3 3.1-7.6-1.8c-4.2-1-7.1-2-6.5-2.2.6-.2.9-.8.6-1.3-.4-.5 0-.6.8-.3 2.1.8 6.9-1.4 6.1-2.8-.5-1-.4-1 .5-.2 1.7 1.6 9.1-2.6 14-7.8 2-2.1 3.6-3.8 3.7-3.8.1 0-.6 3.1-1.5 7zm14.7-3.7c1.9 4 .7 8.5-3.1 10.8-2.9 1.7-3.3 1.7-4.7.3-1.3-1.4-1.2-1.7 1.2-3.5 1.4-1.1 3.7-2.9 5-4 1.8-1.6 1.9-1.8.3-1-1.1.6-3.5 1.8-5.4 2.7l-3.4 1.6.6-3.7c.3-2 1.1-4.3 1.8-5.1 1.9-2.4 6.2-1.3 7.7 1.9zm-268.1-.8c0 .8-.4 1.2-.9.9-.5-.3-.6-1-.3-1.5.9-1.3 1.2-1.1 1.2.6zm119.8-.6c.3.5.2 1.2-.3 1.5-.5.3-.9-.1-.9-.9 0-1.7.3-1.9 1.2-.6zm48 0c.3.5.2 1.2-.3 1.5-.5.3-.9-.1-.9-.9 0-1.7.3-1.9 1.2-.6zm-241.4 1.3c.4.6-1.1 2.8-3.2 5-2.1 2.3-3.6 4.5-3.3 5 .3.4.2.7-.3.6-.5-.2-2 .7-3.3 2-1.7 1.6-2.6 1.9-2.7 1-.1-.7-.6-4.4-1.1-8.1l-.9-6.8 7.1.2c3.9.1 7.4.6 7.7 1.1zm17.5 1.4c.1.9 0 1.3-.4 1-.3-.4-.7-1.4-.8-2.2-.1-.9 0-1.3.4-1 .3.4.7 1.4.8 2.2zm12.4-2.2c0 .3-.4.8-1 1.1-.5.3-1 .1-1-.4 0-.6.5-1.1 1-1.1.6 0 1 .2 1 .4zm15.6 2.2c.1.9 0 1.3-.4 1-.3-.4-.7-1.4-.8-2.2-.1-.9 0-1.3.4-1 .3.4.7 1.4.8 2.2zm19.8-1.8c.3.5-.1.9-.9.9s-1.2-.4-.9-.9c.3-.4.7-.8.9-.8.2 0 .6.4.9.8zm68.6.2c0 .5-.2 1-.4 1-.3 0-.8-.5-1.1-1-.3-.6-.1-1 .4-1 .6 0 1.1.4 1.1 1zm7.6.5c-.1.8-.5 1.7-.8 2.1-.5.4-.4-1.6.1-3.4.3-.9.9.1.7 1.3zm56.1.7c.2 1.7 0 1.9-.7.8-.5-.8-.6-1.8-.4-2.2.8-1.2 1-1 1.1 1.4zm64.3-1.8c0 .3-.4.8-1 1.1-.5.3-1 .1-1-.4 0-.6.5-1.1 1-1.1.6 0 1 .2 1 .4zm35.6 1.1c-.1.8-.5 1.7-.8 2.1-.5.4-.4-1.6.1-3.4.3-.9.9.1.7 1.3zm-262 2.1c.1.9 0 1.3-.4 1-.3-.4-.7-1.4-.8-2.2-.1-.9 0-1.3.4-1 .3.4.7 1.4.8 2.2zm116.2-.1c-.3.3-.9-.2-1.2-1.2-.6-1.4-.5-1.5.5-.6.7.7 1 1.5.7 1.8zm-111.3-.5c-.3.5-1.2 1-1.8 1-.7 0-.6-.4.3-1 1.9-1.2 2.3-1.2 1.5 0zm-30.8 3.2c.2 1.7 0 1.9-.7.8-.5-.8-.6-1.8-.4-2.2.8-1.2 1-1 1.1 1.4zm11.8-1.3c-.9.8-3.6 1-3 .2.2-.4 1.1-.8 2-.8.8 0 1.3.3 1 .6zm6.1.3c.3.4-.1.5-1 .4-.8-.1-1.8-.5-2.2-.8-.3-.4.1-.5 1-.4.8.1 1.8.5 2.2.8zm49.9-.3c-.9.8-3.6 1-3 .2.2-.4 1.1-.8 2-.8.8 0 1.3.3 1 .6zm5.5-.3c0 .8-1.9 1.3-2.4.6-.3-.5.1-.9.9-.9s1.5.2 1.5.3zm10.7.9c0 .8-.4 1.2-.9.9-.5-.3-.6-1-.3-1.5.9-1.3 1.2-1.1 1.2.6zm123.8-.6c.3.5.2 1.2-.3 1.5-.5.3-.9-.1-.9-.9 0-1.7.3-1.9 1.2-.6zm23.9 0c.3.5-.2 1.5-1.2 2.2-1.5 1.2-1.6 1.2-.5-.2.7-.9 1-1.9.6-2.2-.3-.4-.4-.7 0-.7.3 0 .8.4 1.1.9zm40.2.3c.3.4-.1.5-1 .4-.8-.1-1.8-.5-2.2-.8-.3-.4.1-.5 1-.4.8.1 1.8.5 2.2.8zm4.4-.2c0 .5-.5 1-1.1 1-.5 0-.7-.5-.4-1 .3-.6.8-1 1.1-1 .2 0 .4.4.4 1zm19.6.2c.3.4-.1.5-1 .4-.8-.1-1.8-.5-2.2-.8-.3-.4.1-.5 1-.4.8.1 1.8.5 2.2.8zm6 0c.3.4-.1.5-1 .4-.8-.1-1.8-.5-2.2-.8-.3-.4.1-.5 1-.4.8.1 1.8.5 2.2.8zm4.4-.2c0 .5-.5 1-1.1 1-.5 0-.7-.5-.4-1 .3-.6.8-1 1.1-1 .2 0 .4.4.4 1zm-310.3 2.9c0 1.1-.5 1.8-.9 1.5-.4-.3-.5-1.1-.1-1.9.7-2.1 1.2-1.9 1 .4zm285.7-.3c.3.8.2 1.2-.4.9-.6-.3-1-1-1-1.6 0-1.4.7-1.1 1.4.7zm-242 1.2c.3.5-.1.9-.9.9s-1.2-.4-.9-.9c.3-.4.7-.8.9-.8.2 0 .6.4.9.8zm24.1.1c-.9.8-3.6 1-3 .2.2-.4 1.1-.8 2-.8.8 0 1.3.3 1 .6zm27.9.3c-.3.4-1.1.5-1.9.1-2.1-.7-1.9-1.2.4-1 1.1 0 1.8.5 1.5.9zm42.2 0c.3.4-.1.5-1 .4-.8-.1-1.8-.5-2.2-.8-.3-.4.1-.5 1-.4.8.1 1.8.5 2.2.8zm65.9-.2c.3.5.1 1-.4 1-.6 0-1.1-.5-1.1-1 0-.6.2-1 .4-1 .3 0 .8.4 1.1 1zm48.1.5c-.1.8-.5 1.7-.8 2.1-.5.4-.4-1.6.1-3.4.3-.9.9.1.7 1.3zm48.4-.5c0 .5-.2 1-.4 1-.3 0-.8-.5-1.1-1-.3-.6-.1-1 .4-1 .6 0 1.1.4 1.1 1zm-264.4 3.6c.1.9 0 1.3-.4 1-.3-.4-.7-1.4-.8-2.2-.1-.9 0-1.3.4-1 .3.4.7 1.4.8 2.2zm259.9-1.7c.3.5.2 1.2-.3 1.5-.5.3-.9-.1-.9-.9 0-1.7.3-1.9 1.2-.6zm-245.9 2.3c.3.4-.1.5-1 .4-.8-.1-1.8-.5-2.2-.8-.3-.4.1-.5 1-.4.8.1 1.8.5 2.2.8zm18 0c.3.4-.1.5-1 .4-.8-.1-1.8-.5-2.2-.8-.3-.4.1-.5 1-.4.8.1 1.8.5 2.2.8zm8 .3c-.1.8-.5 1.7-.8 2.1-.5.4-.4-1.6.1-3.4.3-.9.9.1.7 1.3zm55.9-.6c-.9.8-3.6 1-3 .2.2-.4 1.1-.8 2-.8.8 0 1.3.3 1 .6zm104.2.6c0 .8-.4 1.2-.9.9-.5-.3-.6-1-.3-1.5.9-1.3 1.2-1.1 1.2.6zm20.3-.9c0 .8-1.9 1.3-2.4.6-.3-.5.1-.9.9-.9s1.5.2 1.5.3zm12.4.2c.3.5-.1.9-.9.9s-1.2-.4-.9-.9c.3-.4.7-.8.9-.8.2 0 .6.4.9.8zm-7.3 3.5c-1 .9-1.1.8-.5-.6.3-1 .9-1.5 1.2-1.2.3.3 0 1.1-.7 1.8zm-221.6-.4c.3.5.2 1.2-.3 1.5-.5.3-.9-.1-.9-.9 0-1.7.3-1.9 1.2-.6zm240.2.6c0 .8-.4 1.2-.9.9-.5-.3-.6-1-.3-1.5.9-1.3 1.2-1.1 1.2.6zm-294.2.5c.3.5.1 1-.4 1-.6 0-1.1-.5-1.1-1 0-.6.2-1 .4-1 .3 0 .8.4 1.1 1zm50 0c.3.5.1 1-.4 1-.6 0-1.1-.5-1.1-1 0-.6.2-1 .4-1 .3 0 .8.4 1.1 1zm36.5-.4c0 .8-1.9 1.3-2.4.6-.3-.5.1-.9.9-.9s1.5.2 1.5.3zm111.4.2c.3.5-.1.9-.9.9s-1.2-.4-.9-.9c.3-.4.7-.8.9-.8.2 0 .6.4.9.8zm40.2.4c.4.7.4 1-.1.6-.4-.4-1.5-.2-2.4.5-1.4 1.1-1.4 1-.2-.6 1.6-2 1.8-2.1 2.7-.5zm5.5.5c1.2 1.6 1.2 1.7-.2.6-.9-.7-2-.9-2.4-.5-.5.4-.5.1-.1-.6.9-1.6 1.1-1.5 2.7.5zm20.4-.8c-.9.8-3.6 1-3 .2.2-.4 1.1-.8 2-.8.8 0 1.3.3 1 .6zm68.5.9c0 1.4-4.1 16.5-6.2 22.7-4.5 13.6-13.1 27.2-21.4 34-3.5 2.9-4.4 4.3-4.4 6.9 0 2.4-1.2 4.6-5.2 9.2-17.4 19.6-38 35.3-61 46.3-8.9 4.2-28.2 11.1-31.2 11.1-1.9 0-4.8-5.5-7-13-3-10.5-6.7-34.1-5.6-35.4.5-.7.6-1.6.2-2-.4-.4 0-.6.8-.4.9.2 1.4-.3 1.2-1.2-.2-1 .6-.6 2.4 1 1.8 1.7 2.8 2.1 3.1 1.2 1.1-2.9 3.3-.7 5.9 5.9 2.5 6.4 5.3 10.7 4.1 6.3-.3-1.1-1.3-5.2-2.2-9.3l-1.8-7.4 2.4-1.9c4.1-3.3 6.9-5.1 7.3-4.7.2.2 1.9 4 3.8 8.4 6.7 15.3 13.1 28.5 13.8 28.5.9 0 .3-6.2-1.2-11-.5-1.9-3.9-9-7.4-15.7-3.5-6.7-6.4-12.6-6.4-13 0-.4 1.6-1.9 3.5-3.2 1.9-1.3 3.3-2.7 3-3.1-.3-.5.2-.7 1-.6 1.7.2 2.9 2 9 13.1 2.1 3.8 4.9 8.8 6.3 10.9 2.7 4.3 12.2 13.9 13 13.1.3-.2-2.5-5-6.3-10.6-6.7-10.1-11.5-20-11.5-23.9 0-2.4-.9-2.6-2.5-.3-1.1 1.5-1.3 1.5-2.4-.6-1.8-3.2-2.2-6.3-.9-5.5.6.4 1.7-.1 2.5-1.1.7-1.1 1.3-1.5 1.3-1 0 .4.9 0 2-1 2.5-2.3 3.4-1.6 10.5 8.1 5.3 7.1 12.5 14.8 13.2 14 .6-.5-6-10.6-12.4-19.2-2.9-3.9-5.3-7.5-5.3-8.1 0-3 8.8 1.2 15.9 7.6 1.8 1.7 3.9 3.1 4.6 3.1.6 0 2 .9 3 2 1.1 1.2 3.1 2 5.2 2 3.2 0 3.3-.1 2.8-3.3-.7-4-2.2-5.5-6.2-6.3-2.4-.5-3.2-.2-3.5 1-.2 1-2.2-1-5.6-5.6l-5.2-7.2 2.5-1.5c1.4-.9 2.5-1.9 2.5-2.3 0-.5.9-.8 2-.8 1 0 2.3-.7 2.8-1.6.7-1.3 1.8-.8 6.8 3.3 3.2 2.6 7.4 6.2 9.3 7.9 2 1.9 5.8 3.9 9 4.8 6.9 2 7.8 1.4 1.4-1-6.8-2.5-7.2-2.9-7.5-8.7l-.3-5.2-5.5-.3c-5.9-.3-7.3-1.1-7.5-4.2-.1-1.5.1-1.7 1.2-.8 1 .8 1.7.7 2.9-.8.9-1 1.3-1.3.9-.7-.4.9-.1 1.1 1 .7 1.2-.5 1.3-1 .6-1.7-.6-.6-1.1-1.5-1.1-1.9 0-1.8 3.8-.5 14.8 5.1 12.6 6.3 19.8 8.7 17.3 5.7-1.7-2-13.2-9.2-22.5-13.9l-6.9-3.5 6.6-3.3 6.7-3.2 7.2 2.1c7.7 2.3 15.8 3.8 15.8 3 0-.3-3.8-2-8.5-3.8-4.7-1.8-8.5-3.6-8.5-4 0-.3 2.2-1.6 4.9-2.7 2.6-1.2 5.6-3 6.6-4 2.5-2.5 19.7-3.5 17.4-1-.8.8-1.6 1.4-1.7 1.2-.4-.4-2.4 1.2-7.5 5.8l-3.2 2.9 4.7-3.1c2.6-1.7 5.1-3.1 5.5-3.1.9 0 2.1-.9 7.3-5 2.7-2.1 4-2.5 4-1.2zm-298.4 1.7c-.1.8-.5 1.7-.8 2.1-.5.4-.4-1.6.1-3.4.3-.9.9.1.7 1.3zm168 1.1c.1.9 0 1.3-.4 1-.3-.4-.7-1.4-.8-2.2-.1-.9 0-1.3.4-1 .3.4.7 1.4.8 2.2zm-115.9-.1c0 .8-.4 1.2-.9.9-.5-.3-.6-1-.3-1.5.9-1.3 1.2-1.1 1.2.6zm-43.7-.1c0 .3-.4.8-1 1.1-.5.3-1 .1-1-.4 0-.6.5-1.1 1-1.1.6 0 1 .2 1 .4zm163.4.4c.3.5-.1.9-.9.9s-1.2-.4-.9-.9c.3-.4.7-.8.9-.8.2 0 .6.4.9.8zm40.1 2.8c-1.6 1.3-2.5 2.4-2 2.5.6 0 0 .4-1.3 1-1.5.5-2.1 1.3-1.6 2.1.4.7.4 1-.1.6-.4-.4-2.1.4-3.7 1.7-3.5 3-4 3-5.4.7-.9-1.3-.8-2 .2-3 .8-.7 1.6-1.2 1.9-1.2 1.9.1 2.5-.1 3.7-1.3.7-.7 3.2-2.1 5.6-3.1 2.3-1.1 4.2-2.4 4.2-2.9 0-.6.3-.7.8-.3.4.4-.6 1.9-2.3 3.2zm40-2.6c.3.5.1 1-.4 1-.6 0-1.1-.5-1.1-1 0-.6.2-1 .4-1 .3 0 .8.4 1.1 1zm8.2 1.2c.2 1.7 0 1.9-.7.8-.5-.8-.6-1.8-.4-2.2.8-1.2 1-1 1.1 1.4zm-286 1.3c0 .8-.4 1.2-.9.9-.5-.3-.6-1-.3-1.5.9-1.3 1.2-1.1 1.2.6zm20.3-1.1c0 .2-.7.7-1.6 1-.8.3-1.2.2-.9-.4.6-1 2.5-1.4 2.5-.6zm-10.4 3.1c-.1.8-.5 1.7-.8 2.1-.5.4-.4-1.6.1-3.4.3-.9.9.1.7 1.3zm4 1.1c.1.9 0 1.3-.4 1-.3-.4-.7-1.4-.8-2.2-.1-.9 0-1.3.4-1 .3.4.7 1.4.8 2.2zm7.7-.1c-.7 2.1-1.2 1.9-1-.4 0-1.1.5-1.8.9-1.5.4.3.5 1.1.1 1.9zm40.3-1.3c.3.4-.1.5-1 .4-.8-.1-1.8-.5-2.2-.8-.3-.4.1-.5 1-.4.8.1 1.8.5 2.2.8zm23.9-.2c.3.5.1 1-.4 1-.6 0-1.1-.5-1.1-1 0-.6.2-1 .4-1 .3 0 .8.4 1.1 1zm43.8 7.1c.5 4 .3 4.9-1.7 6.8l-2.4 2.2-5-2.6-5-2.6 6.1-5.9c6.8-6.5 6.9-6.5 8 2.1zm92.1-7.3c.3.5-.1.9-.9.9s-1.2-.4-.9-.9c.3-.4.7-.8.9-.8.2 0 .6.4.9.8zm5.7.9c1.2 1.6 1.2 1.7-.2.6-.9-.7-2-.9-2.4-.5-.5.4-.5.1-.1-.6.9-1.6 1.1-1.5 2.7.5zm30.5-.5c.3.4-.1.5-1 .4-.8-.1-1.8-.5-2.2-.8-.3-.4.1-.5 1-.4.8.1 1.8.5 2.2.8zm-256 3.4c.1.9 0 1.3-.4 1-.3-.4-.7-1.4-.8-2.2-.1-.9 0-1.3.4-1 .3.4.7 1.4.8 2.2zm48 .6c.3.4-.1.5-1 .4-.8-.1-1.8-.5-2.2-.8-.3-.4.1-.5 1-.4.8.1 1.8.5 2.2.8zm104.4-.8c0 .3-.4.8-1 1.1-.5.3-1 .1-1-.4 0-.6.5-1.1 1-1.1.6 0 1 .2 1 .4zm-138 2c0 .2-.7.7-1.6 1-.8.3-1.2.2-.9-.4.6-1 2.5-1.4 2.5-.6zm17.6 2.2c.1.9 0 1.3-.4 1-.3-.4-.7-1.4-.8-2.2-.1-.9 0-1.3.4-1 .3.4.7 1.4.8 2.2zm115.4-2c0 .8-1.9 1.3-2.4.6-.3-.5.1-.9.9-.9s1.5.2 1.5.3zm-147.4 4c.1.9 0 1.3-.4 1-.3-.4-.7-1.4-.8-2.2-.1-.9 0-1.3.4-1 .3.4.7 1.4.8 2.2zm7.8-1.4c-.3.4-1.1.5-1.9.1-2.1-.7-1.9-1.2.4-1 1.1 0 1.8.5 1.5.9zm40.1-.3c-.9.8-3.6 1-3 .2.2-.4 1.1-.8 2-.8.8 0 1.3.3 1 .6zm104.1 1.7c.1.9 0 1.3-.4 1-.3-.4-.7-1.4-.8-2.2-.1-.9 0-1.3.4-1 .3.4.7 1.4.8 2.2zM375 314c0 .5-.2 1-.4 1-.3 0-.8-.5-1.1-1-.3-.6-.1-1 .4-1 .6 0 1.1.4 1.1 1zm4 0c0 .5-.5 1-1.1 1-.5 0-.7-.5-.4-1 .3-.6.8-1 1.1-1 .2 0 .4.4.4 1zm-226 2c0 .5-.5 1-1.1 1-.5 0-.7-.5-.4-1 .3-.6.8-1 1.1-1 .2 0 .4.4.4 1zm20.5 0c-.3.5-1.2 1-1.8 1-.7 0-.6-.4.3-1 1.9-1.2 2.3-1.2 1.5 0zm83.5-.6c0 .3-.4.8-1 1.1-.5.3-1 .1-1-.4 0-.6.5-1.1 1-1.1.6 0 1 .2 1 .4zm45 0c0 .2-.8 1-1.7 1.7-1.6 1.3-1.7 1.2-.4-.4 1.3-1.6 2.1-2.1 2.1-1.3zm22.1 2.2c1.1 1.4 1 1.8-.6 3s-2.1 1.2-3.7-.3c-2.7-2.5-2.3-3.3 2.3-4.2.4 0 1.3.6 2 1.5zm-197.5 2c.1.9 0 1.3-.4 1-.3-.4-.7-1.4-.8-2.2-.1-.9 0-1.3.4-1 .3.4.7 1.4.8 2.2zm4.1-1.1c0 .8-.4 1.2-.9.9-.5-.3-.6-1-.3-1.5.9-1.3 1.2-1.1 1.2.6zm15.8-.5c.3.5.1 1-.4 1-.6 0-1.1-.5-1.1-1 0-.6.2-1 .4-1 .3 0 .8.4 1.1 1zm106-.1c-.9.8-3.6 1-3 .2.2-.4 1.1-.8 2-.8.8 0 1.3.3 1 .6zm110.2.6c0 .8-.4 1.2-.9.9-.5-.3-.6-1-.3-1.5.9-1.3 1.2-1.1 1.2.6zm-194.3 1.3c.3.5-.1.9-.9.9s-1.2-.4-.9-.9c.3-.4.7-.8.9-.8.2 0 .6.4.9.8zm5.6-.2c0 .8-1.9 1.3-2.4.6-.3-.5.1-.9.9-.9s1.5.2 1.5.3zm84.6.9c-.1.8-.5 1.7-.8 2.1-.5.4-.4-1.6.1-3.4.3-.9.9.1.7 1.3zm107.4-1.1c0 .2-.8 1-1.7 1.7-1.6 1.3-1.7 1.2-.4-.4 1.3-1.6 2.1-2.1 2.1-1.3zm-144.4 3.5c1.4 1.7 3.3 3.2 4.3 3.6 1 .3 1.8 1.2 1.8 2s-.3 1.2-.7 1c-.3-.2-3 1.8-5.9 4.5-5.9 5.5-5.2 5.5-14-.1-3.8-2.4-4.8-2.7-5.6-1.6-.6.8-2.9 3.6-5.1 6.3-30 35.7-28.1 33.1-27.4 37.9l.6 4 2.8-5.5c3.1-6.1 8.5-10.7 10.5-8.7 1.6 1.6 1.4 2.2-2.1 5.9-8.7 9-9.2 9.7-6.8 9.1 1.2-.3 2.4-1.2 2.7-1.9.3-.8.8-1.2 1.3-.9.4.2 1.6-.3 2.6-1.3 1-.9 3.1-2.5 4.6-3.5 1.6-.9 2.7-2.1 2.5-2.5-.1-.4.1-.7.4-.7 1.4 0 3.8-2.8 3.2-3.9-.4-.8-.2-.8.7.1 1 .9.2 3.1-3.9 10.7-2.8 5.3-6.9 12.4-9.1 15.7-4 6-5.1 8.4-2.8 6.1 2.2-2.2 2.9-1.2 1.1 1.5l-1.8 2.8 3.5-2.5c1.9-1.3 4.1-3.2 4.8-4.2.7-1 1.7-1.8 2.2-1.8.5 0 5-4 9.9-9 8.2-8.2 8.9-8.7 8.4-5.9-.2 1.6-1.7 5.8-3.2 9.2-1.5 3.4-3.3 7.8-3.9 9.7-.7 1.9-2.6 5-4.3 6.8-2 2.2-2.9 4-2.6 5.3.3 1 .1 1.7-.4 1.3-.5-.3-.9.2-.9 1 0 1.9-5.2-.8-19-9.9-9.8-6.5-14.8-10.7-25.9-21.5-7-6.9-6.9-6-1-10.4 1.9-1.3 2.8-5.4 1.6-7.3-1-1.5 2-1 6 1.1 2.8 1.4 3 1.3 4.7-.9.9-1.3 3.3-2.6 5.1-2.9 2.2-.4 3.6-1.4 4-2.7.4-1.3 1.3-1.8 2.3-1.5 1.1.4 3.8-1.4 7.7-5 10.8-9.8 40.9-32.4 43.3-32.4.7 0 2.4 1.3 3.8 2.9zm-111-.7c.3.4-.1.5-1 .4-.8-.1-1.8-.5-2.2-.8-.3-.4.1-.5 1-.4.8.1 1.8.5 2.2.8zm12 0c.3.4-.1.5-1 .4-.8-.1-1.8-.5-2.2-.8-.3-.4.1-.5 1-.4.8.1 1.8.5 2.2.8zm7.8-.4c.2.4-.5.9-1.7.9-1.7.2-1.9 0-.7-.7 1.8-1.2 1.8-1.2 2.4-.2zm6.1.1c-.9.8-3.6 1-3 .2.2-.4 1.1-.8 2-.8.8 0 1.3.3 1 .6zm174.3.2c-.2.6 1.3 1.7 3.2 2.3l3.4 1.3-2.7 2.3c-1.4 1.3-2.4 2.8-2 3.3.3.6.1.7-.4.4-.6-.4-2.1.1-3.4 1.1-2.6 1.9-3.2 2.2-14.3 8.2-5.6 3-7.6 3.7-7.6 2.6 0-.8.7-2.2 1.6-3 .8-.9 1.2-2 .9-2.6-.3-.5-.1-1 .6-1s2.6-1.5 4.3-3.3c1.7-1.9 4.5-4.1 6.1-5 1.7-.8 4.6-2.9 6.5-4.6 4-3.4 4.1-3.5 3.8-2zm-56.2 3.5c.1.9 0 1.3-.4 1-.3-.4-.7-1.4-.8-2.2-.1-.9 0-1.3.4-1 .3.4.7 1.4.8 2.2zm-135.9.9c0 .8-.4 1.2-.9.9-.5-.3-.6-1-.3-1.5.9-1.3 1.2-1.1 1.2.6zm43.8-.5c.3.5.1 1-.4 1-.6 0-1.1-.5-1.1-1 0-.6.2-1 .4-1 .3 0 .8.4 1.1 1zm10.1.2c.3.4-.1.5-1 .4-.8-.1-1.8-.5-2.2-.8-.3-.4.1-.5 1-.4.8.1 1.8.5 2.2.8zm159.4-.6c0 .8-1.9 1.3-2.4.6-.3-.5.1-.9.9-.9s1.5.2 1.5.3zM112.5 328c.3.5.1 1-.4 1-.6 0-1.1-.5-1.1-1 0-.6.2-1 .4-1 .3 0 .8.4 1.1 1zm21.5-.4c0 .8-1.9 1.3-2.4.6-.3-.5.1-.9.9-.9s1.5.2 1.5.3zm-7.4 4c.1.9 0 1.3-.4 1-.3-.4-.7-1.4-.8-2.2-.1-.9 0-1.3.4-1 .3.4.7 1.4.8 2.2zm128 0c.1.9 0 1.3-.4 1-.3-.4-.7-1.4-.8-2.2-.1-.9 0-1.3.4-1 .3.4.7 1.4.8 2.2zm4.4-2c0 .8-1.9 1.3-2.4.6-.3-.5.1-.9.9-.9s1.5.2 1.5.3zm61 0c0 .8-1.9 1.3-2.4.6-.3-.5.1-.9.9-.9s1.5.2 1.5.3zm30.5.3c-.9.8-3.6 1-3 .2.2-.4 1.1-.8 2-.8.8 0 1.3.3 1 .6zm-201.4 1.8c1.3 1.6 1.2 1.7-.3.4-1-.7-1.8-1.5-1.8-1.7 0-.8.8-.3 2.1 1.3zm-68.1.7c0 .2-.6.9-1.4 1.5-1.1.9-1.6.9-2.2 0-.4-.7-.3-.9.4-.5.6.3 1.3.2 1.7-.4.6-1 1.5-1.4 1.5-.6zm97.5.8c.5-.4.5-.1.1.6-.6 1-1.1 1-2.2.1-.8-.6-1.4-1.4-1.4-1.6 0-.3.6 0 1.3.6.8.6 1.8.7 2.2.3zm-104 .7c-.9.8-3.6 1-3 .2.2-.4 1.1-.8 2-.8.8 0 1.3.3 1 .6zm44.2-.2c-.4.3.1 1.6 1 2.7 1.8 2.1 1.8 2.1-.4.2-2-1.6-2.3-3.6-.6-3.6.4 0 .3.3 0 .7zm11.9.5c.4.7.4 1-.1.6-.4-.4-1.5-.2-2.4.5-1.4 1.1-1.4 1-.2-.6 1.6-2 1.8-2.1 2.7-.5zm40.4-.2c0 .5-.2 1-.4 1-.3 0-.8-.5-1.1-1-.3-.6-.1-1 .4-1 .6 0 1.1.4 1.1 1zm58 1.4c-1.4 1.4-3.6 3.6-4.9 5-1.2 1.4-2.8 2.3-3.4 1.9-.8-.5-.7-.8.1-1.1.7-.2.9-.9.5-1.5-.3-.7-.3-.9.2-.5.4.4 2.1-.7 3.6-2.3 1.6-1.7 2.9-2.7 2.9-2.3 0 .4.5.3 1.2-.4s1.4-1.2 1.7-1.2c.3 0-.5 1.1-1.9 2.4zm-84.2 1.1c-.3.3-.9-.2-1.2-1.2-.6-1.4-.5-1.5.5-.6.7.7 1 1.5.7 1.8zm-70.4 1.7c-.3.4-1.1.5-1.9.1-2.1-.7-1.9-1.2.4-1 1.1 0 1.8.5 1.5.9zm96.2.3c-.1.8-.5 1.7-.8 2.1-.5.4-.4-1.6.1-3.4.3-.9.9.1.7 1.3zm59.8-.7c.3.5-.1.9-.9.9s-1.2-.4-.9-.9c.3-.4.7-.8.9-.8.2 0 .6.4.9.8zm6.1.1c-.9.8-3.6 1-3 .2.2-.4 1.1-.8 2-.8.8 0 1.3.3 1 .6zm26.1 1.7c.1.9 0 1.3-.4 1-.3-.4-.7-1.4-.8-2.2-.1-.9 0-1.3.4-1 .3.4.7 1.4.8 2.2zm43.9-1.6c.3.5.1 1-.4 1-.6 0-1.1-.5-1.1-1 0-.6.2-1 .4-1 .3 0 .8.4 1.1 1zm-49.5 1.4c0 .2-.7.7-1.6 1-.8.3-1.2.2-.9-.4.6-1 2.5-1.4 2.5-.6zM123 342c0 .5-.5 1-1.1 1-.5 0-.7-.5-.4-1 .3-.6.8-1 1.1-1 .2 0 .4.4.4 1zm11.5-.1c-.9.8-3.6 1-3 .2.2-.4 1.1-.8 2-.8.8 0 1.3.3 1 .6zm6 0c-.9.8-3.6 1-3 .2.2-.4 1.1-.8 2-.8.8 0 1.3.3 1 .6zm21.9-.1c.2.4-.5.9-1.7.9-1.7.2-1.9 0-.7-.7 1.8-1.2 1.8-1.2 2.4-.2zm44.2 1.4c-.3 1.3-.6 2.8-.6 3.5 0 .6-2.9 4.1-6.5 7.7-3.6 3.6-6.5 7-6.5 7.6 0 .5-.6.9-1.2.7-.7-.1-1.2.4-1 1.2.3 1.2 0 1.2-1.2.2-.9-.8-2.7-1.1-4-.9-2.4.5-2.3.2 1.6-5.5 5.6-8.3 10.7-13.8 14.3-15.3 4.5-2 5.8-1.8 5.1.8zm46.4-.7c0 .2-.9.3-1.9.2-1.1 0-1.8-.5-1.5-.9.4-.6 3.4 0 3.4.7zm5.6 2c-.1.8-.5 1.7-.8 2.1-.5.4-.4-1.6.1-3.4.3-.9.9.1.7 1.3zm-180 3.1c.1.9 0 1.3-.4 1-.3-.4-.7-1.4-.8-2.2-.1-.9 0-1.3.4-1 .3.4.7 1.4.8 2.2zm8-1.4c.3.4-.1.5-1 .4-.8-.1-1.8-.5-2.2-.8-.3-.4.1-.5 1-.4.8.1 1.8.5 2.2.8zm72.4-.2c0 .5-.2 1-.4 1-.3 0-.8-.5-1.1-1-.3-.6-.1-1 .4-1 .6 0 1.1.4 1.1 1zm81-.4c0 .8-1.9 1.3-2.4.6-.3-.5.1-.9.9-.9s1.5.2 1.5.3zm51 .4c0 .5-.2 1-.4 1-.3 0-.8-.5-1.1-1-.3-.6-.1-1 .4-1 .6 0 1.1.4 1.1 1zm-234 2c0 .5-.2 1-.4 1-.3 0-.8-.5-1.1-1-.3-.6-.1-1 .4-1 .6 0 1.1.4 1.1 1zm65.6.5c-.1.8-.5 1.7-.8 2.1-.5.4-.4-1.6.1-3.4.3-.9.9.1.7 1.3zm128 0c-.1.8-.5 1.7-.8 2.1-.5.4-.4-1.6.1-3.4.3-.9.9.1.7 1.3zm-100.1.4c.3.5.2 1.2-.3 1.5-.5.3-.9-.1-.9-.9 0-1.7.3-1.9 1.2-.6zm63.9-.2c.3.4-1.3 2.6-3.6 5-3.2 3.2-4.3 5.2-4.5 8-.5 6-.6 6.2-1.5 5.7-1.2-.8-11.9 10.8-11.4 12.3.3.7-.1 1-.9.6-1.2-.4-1.2-.9-.3-2.6 4.1-7.7 19.4-29.7 20.7-29.7.4 0 1.1.3 1.5.7zm-123 1.1c.3.5-.1.9-.9.9s-1.2-.4-.9-.9c.3-.4.7-.8.9-.8.2 0 .6.4.9.8zm43.6-.4c0 .3-.4.8-1 1.1-.5.3-1 .1-1-.4 0-.6.5-1.1 1-1.1.6 0 1 .2 1 .4zm31.5.5c-.9.8-3.6 1-3 .2.2-.4 1.1-.8 2-.8.8 0 1.3.3 1 .6zm164.5.1c0 .5-.5 1-1.1 1-.5 0-.7-.5-.4-1 .3-.6.8-1 1.1-1 .2 0 .4.4.4 1zm-254.9 2.7c1.3 1.6 1.2 1.7-.3.4-1-.7-1.8-1.5-1.8-1.7 0-.8.8-.3 2.1 1.3zm68.9-1.3c0 .2-.7.7-1.6 1-.8.3-1.2.2-.9-.4.6-1 2.5-1.4 2.5-.6zM91 354c0 .5-.2 1-.4 1-.3 0-.8-.5-1.1-1-.3-.6-.1-1 .4-1 .6 0 1.1.4 1.1 1zm31.6.5c-.1.8-.5 1.7-.8 2.1-.5.4-.4-1.6.1-3.4.3-.9.9.1.7 1.3zm12 0c-.1.8-.5 1.7-.8 2.1-.5.4-.4-1.6.1-3.4.3-.9.9.1.7 1.3zm4 1.1c.1.9 0 1.3-.4 1-.3-.4-.7-1.4-.8-2.2-.1-.9 0-1.3.4-1 .3.4.7 1.4.8 2.2zm7.9-1.6c.3.5.1 1-.4 1-.6 0-1.1-.5-1.1-1 0-.6.2-1 .4-1 .3 0 .8.4 1.1 1zm8.1.5c-.1.8-.5 1.7-.8 2.1-.5.4-.4-1.6.1-3.4.3-.9.9.1.7 1.3zm104.4-.9c0 .8-1.9 1.3-2.4.6-.3-.5.1-.9.9-.9s1.5.2 1.5.3zm-180.3 3.3c0 1.1-.5 1.8-.9 1.5-.4-.3-.5-1.1-.1-1.9.7-2.1 1.2-1.9 1 .4zm3.9 2.7c.1.9 0 1.3-.4 1-.3-.4-.7-1.4-.8-2.2-.1-.9 0-1.3.4-1 .3.4.7 1.4.8 2.2zm127.9-1.6c.3.5.1 1-.4 1-.6 0-1.1-.5-1.1-1 0-.6.2-1 .4-1 .3 0 .8.4 1.1 1zm16.5-.4c0 .8-1.9 1.3-2.4.6-.3-.5.1-.9.9-.9s1.5.2 1.5.3zm64-.2c0 .3-.4.8-1 1.1-.5.3-1 .1-1-.4 0-.6.5-1.1 1-1.1.6 0 1 .2 1 .4zm126.5 3.8c5.9 6.4 5.8 6 1.4 11.4-2.2 2.7-5.7 6.9-7.7 9.4-6.4 7.9-18.5 19.6-25.7 25-3.8 2.9-7.6 6.3-8.3 7.6l-1.3 2.4-4.2-2.1c-5.1-2.6-7.7-4.8-7.7-6.6 0-.7 1.9-3 4.2-5.1 12.7-11.2 36.2-34.7 42.3-42 1.5-1.7 3-3.2 3.4-3.2.3 0 2 1.5 3.6 3.2zm-264.8-.7c0 .8-.4 1.2-.9.9-.5-.3-.6-1-.3-1.5.9-1.3 1.2-1.1 1.2.6zm101.9 1.1c.1.9 0 1.3-.4 1-.3-.4-.7-1.4-.8-2.2-.1-.9 0-1.3.4-1 .3.4.7 1.4.8 2.2zm-15.9-.1c0 .8-.4 1.2-.9.9-.5-.3-.6-1-.3-1.5.9-1.3 1.2-1.1 1.2.6zm-164 1c0 .8-.4 1.2-.9.9-.5-.3-.6-1-.3-1.5.9-1.3 1.2-1.1 1.2.6zm24.3-1.1c0 .3-.4.8-1 1.1-.5.3-1 .1-1-.4 0-.6.5-1.1 1-1.1.6 0 1 .2 1 .4zm36 0c0 .3-.4.8-1 1.1-.5.3-1 .1-1-.4 0-.6.5-1.1 1-1.1.6 0 1 .2 1 .4zm4 .6c0 .5-.2 1-.4 1-.3 0-.8-.5-1.1-1-.3-.6-.1-1 .4-1 .6 0 1.1.4 1.1 1zm123.6 1.6c.1.9 0 1.3-.4 1-.3-.4-.7-1.4-.8-2.2-.1-.9 0-1.3.4-1 .3.4.7 1.4.8 2.2zm-172 .9c-.1.8-.5 1.7-.8 2.1-.5.4-.4-1.6.1-3.4.3-.9.9.1.7 1.3zM294 364c-.8.5-1.9 1-2.5 1-.5 0-.3-.5.5-1s2-1 2.5-1c.6 0 .3.5-.5 1zm-226.6 1.8c.3.5-.1.9-.9.9s-1.2-.4-.9-.9c.3-.4.7-.8.9-.8.2 0 .6.4.9.8zm174.9 1.7c-.7 2.1-1.2 1.9-1-.4 0-1.1.5-1.8.9-1.5.4.3.5 1.1.1 1.9zm68.4-1c0 .8-.4 1.2-.9.9-.5-.3-.6-1-.3-1.5.9-1.3 1.2-1.1 1.2.6zM209 368c0 .5-.5 1-1.1 1-.5 0-.7-.5-.4-1 .3-.6.8-1 1.1-1 .2 0 .4.4.4 1zm49.6.5c-.1.8-.5 1.7-.8 2.1-.5.4-.4-1.6.1-3.4.3-.9.9.1.7 1.3zm32 0c-.1.8-.5 1.7-.8 2.1-.5.4-.4-1.6.1-3.4.3-.9.9.1.7 1.3zm-64.3 1.2c-.4 1-.9 2-1.3 2.3-2 1.6-5.9 7.8-5.2 8.4.4.4.2.6-.4.4-1.5-.4-12.5 10.7-11.6 11.7.4.5.2.5-.5.1-.6-.3-1.4-.2-1.8.4-.3.5-.1 1 .6 1s1 .3.6.6c-.3.3-1 .3-1.6 0-.7-.5-.2-2.1 1.4-4.4 1.4-2 3.4-5.4 4.5-7.5 1.1-2 3.4-4.9 5.1-6.4 1.8-1.7 2.7-3.3 2.4-4.2-.5-1.3-.4-1.3.6-.4.9 1 1.9.7 4.1-1.2 3.5-3 3.9-3.1 3.1-.8zm-135.7.8c-.1.8-.5 1.7-.8 2.1-.5.4-.4-1.6.1-3.4.3-.9.9.1.7 1.3zm147.8-.3c-.3.4-1.1.5-1.9.1-2.1-.7-1.9-1.2.4-1 1.1 0 1.8.5 1.5.9zm17.6-.6c0 .8-1.9 1.3-2.4.6-.3-.5.1-.9.9-.9s1.5.2 1.5.3zm41.1 2.1c1.3 1.6 1.2 1.7-.3.4-1.7-1.3-2.2-2.1-1.4-2.1.2 0 1 .8 1.7 1.7zm-174.5 1.9c.1.9 0 1.3-.4 1-.3-.4-.7-1.4-.8-2.2-.1-.9 0-1.3.4-1 .3.4.7 1.4.8 2.2zm84-1.1c-.1.8-.5 1.7-.8 2.1-.5.4-.4-1.6.1-3.4.3-.9.9.1.7 1.3zm27-.7c-.6.9 1.6 3.8 2.9 3.7.6 0 2-.6 3.2-1.3 2-1.1 2.2-1 1.6.5-.8 2.3-5.9 11.8-8 14.9-.8 1.3-1.2 2.4-.8 2.4.4 0-.4 1-1.9 2.1-1.5 1.2-2.5 2.8-2.2 3.5.3.8.2 1.3-.2 1.1-1.1-.3-6.2 3.9-6.2 5.3 0 .6-.5.8-1.2.4-.8-.5-.9-.1-.4 1.2.5 1.4.4 1.6-.5.7-.8-.9.1-4.4 4-15.2 2.8-7.7 5.1-14.4 5.1-14.8 0-.3 1-1.7 2.2-3 2.1-2.2 3.4-3.1 2.4-1.5zM103 374c0 .5-.2 1-.4 1-.3 0-.8-.5-1.1-1-.3-.6-.1-1 .4-1 .6 0 1.1.4 1.1 1zm-8.4 3.6c.1.9 0 1.3-.4 1-.3-.4-.7-1.4-.8-2.2-.1-.9 0-1.3.4-1 .3.4.7 1.4.8 2.2zm202.9-1.6c.3.6-.1.7-.9.4-1.8-.7-2.1-1.4-.7-1.4.6 0 1.3.4 1.6 1zm-191 .9c.3.5.2 1.2-.3 1.5-.5.3-.9-.1-.9-.9 0-1.7.3-1.9 1.2-.6zm152 .3c.5-.4.5-.1.1.6-.6 1-1.1 1-2.2.1-.8-.6-1.4-1.4-1.4-1.6 0-.3.6 0 1.3.6.8.6 1.8.7 2.2.3zm-167.1.6c.3.5-.1.9-.9.9s-1.2-.4-.9-.9c.3-.4.7-.8.9-.8.2 0 .6.4.9.8zm52.8 9.7c5.1 5 12.3 11.5 16.1 14.4 3.7 2.9 6.7 5.6 6.7 6 0 .5-2.5 2.5-5.5 4.5-6.5 4.3-5.3 4.8-18.1-6.9-10.9-9.9-18.3-17.7-18.1-19 .1-.6 1.8-1 3.7-1 3.3 0 3.5-.2 3.8-3.8.2-2.1.7-3.7 1.2-3.5.5.2 5 4.4 10.2 9.3zm53.3-7.5c.3.6-.1.7-.9.4-1.8-.7-2.1-1.4-.7-1.4.6 0 1.3.4 1.6 1zm26 3.3c-.5 1.7-1.2 2.4-2.1 2-1.9-.7-1.8-2.3.3-3.9 2.3-1.6 2.6-1.3 1.8 1.9zm-140.8-.8c0 .8-.4 1.2-.9.9-.5-.3-.6-1-.3-1.5.9-1.3 1.2-1.1 1.2.6zm15.9-.3c.3.4-.1.5-1 .4-.8-.1-1.8-.5-2.2-.8-.3-.4.1-.5 1-.4.8.1 1.8.5 2.2.8zm28.8-.4c.3.5-.1.9-.9.9s-1.2-.4-.9-.9c.3-.4.7-.8.9-.8.2 0 .6.4.9.8zm-28.7 3.7c0 .8-.4 1.2-.9.9-.5-.3-.6-1-.3-1.5.9-1.3 1.2-1.1 1.2.6zm-19.7.1c0 .8-1.9 1.3-2.4.6-.3-.5.1-.9.9-.9s1.5.2 1.5.3zm11.6.6c.3.4-.1.5-1 .4-.8-.1-1.8-.5-2.2-.8-.3-.4.1-.5 1-.4.8.1 1.8.5 2.2.8zM195 386c0 .5-.2 1-.4 1-.3 0-.8-.5-1.1-1-.3-.6-.1-1 .4-1 .6 0 1.1.4 1.1 1zm21.5 0c.3.5.1 1-.4 1-.6 0-1.1-.5-1.1-1 0-.6.2-1 .4-1 .3 0 .8.4 1.1 1zm46.1 1.6c.1.9 0 1.3-.4 1-.3-.4-.7-1.4-.8-2.2-.1-.9 0-1.3.4-1 .3.4.7 1.4.8 2.2zm-191.9 1.9c0 .8-.4 1.2-.9.9-.5-.3-.6-1-.3-1.5.9-1.3 1.2-1.1 1.2.6zm47.8-.6c.3.5.2 1.2-.3 1.5-.5.3-.9-.1-.9-.9 0-1.7.3-1.9 1.2-.6zm-31.8 1.6c0 .8-.4 1.2-.9.9-.5-.3-.6-1-.3-1.5.9-1.3 1.2-1.1 1.2.6zm172.7 1.3c.3.5-.1.9-.9.9s-1.2-.4-.9-.9c.3-.4.7-.8.9-.8.2 0 .6.4.9.8zm3.4 4.3c-.7.5-.9.9-.4.9s-.2 1-1.6 2.3c-1.4 1.3-2.7 3-3 3.8-.7 1.9-1.6 1-2.2-2.3-.3-2.1.1-3.1 2.2-4.4 1.5-1 3.4-2.4 4.2-3.3 1.3-1.3 1.5-1.3 1.8.4.2.9-.2 2.1-1 2.6zm-192.2-.5c.1.9 0 1.3-.4 1-.3-.4-.7-1.4-.8-2.2-.1-.9 0-1.3.4-1 .3.4.7 1.4.8 2.2zm7.9-1.6c.3.5.1 1-.4 1-.6 0-1.1-.5-1.1-1 0-.6.2-1 .4-1 .3 0 .8.4 1.1 1zm136.1.5c-.1.8-.5 1.7-.8 2.1-.5.4-.4-1.6.1-3.4.3-.9.9.1.7 1.3zm5.1 1.2c-.3 1-.9 3.1-1.3 4.8-.4 1.6-.9 3.7-1.1 4.5-.3.8-.8 3.4-1.1 5.6-.5 2.8-1.9 5.5-4.4 8.2l-3.7 4.1-4-1.6c-3.4-1.3-3.8-1.8-3.1-3.7.4-1.1 1.3-2 1.8-1.9.6.1 1.3-.4 1.6-1.2.3-.8 0-1.5-.6-1.5s-.7-.5-.2-1.3c.5-.6.9-2.1.9-3.2 0-1.8 6.8-9.5 8.4-9.5.4 0 1.7-1.1 2.9-2.5 2.5-2.9 4.5-3.3 3.9-.8zm25.3-1.3c0 .2-.8 1-1.7 1.7-1.6 1.3-1.7 1.2-.4-.4 1.3-1.6 2.1-2.1 2.1-1.3zm-178.4 6.1c-.1.8-.5 1.7-.8 2.1-.5.4-.4-1.6.1-3.4.3-.9.9.1.7 1.3zm181.9-.5c.3.5.1 1-.4 1-.6 0-1.1-.5-1.1-1 0-.6.2-1 .4-1 .3 0 .8.4 1.1 1zm-137.9 2.5c-.1.8-.5 1.7-.8 2.1-.5.4-.4-1.6.1-3.4.3-.9.9.1.7 1.3zm132 0c-.1.8-.5 1.7-.8 2.1-.5.4-.4-1.6.1-3.4.3-.9.9.1.7 1.3zm21.4 21.6c0 18.6-.1 19.9-1.8 19.9-1.6 0-2-1.5-3-12.8-.7-7-1.5-15.2-1.8-18.2-.6-5.4-.5-5.5 2.5-6.8 1.8-.8 2.8-1.8 2.5-2.4-.4-.7-.2-.8.4-.4.9.5 1.2 6.7 1.2 20.7zm-157.6-17.9c-.3.4-1.1.5-1.9.1-2.1-.7-1.9-1.2.4-1 1.1 0 1.8.5 1.5.9zm96-.4c.3.5-.1.9-.9.9s-1.2-.4-.9-.9c.3-.4.7-.8.9-.8.2 0 .6.4.9.8zm28.3.7c0 .8-.4 1.2-.9.9-.5-.3-.6-1-.3-1.5.9-1.3 1.2-1.1 1.2.6zm-36.4 2c.4.8.3 1.6-.1 1.9-.4.3-.9-.4-.9-1.5-.2-2.3.3-2.5 1-.4zM67 409.6c0 .8-1.9 1.3-2.4.6-.3-.5.1-.9.9-.9s1.5.2 1.5.3zm132.5.4c-.3.5 0 1 .7 1 .9 0 .9.3-.2 1-1.3.9-1.3 1 0 1 1.2 0 1.2.2.2.9-.7.4-1.4 1.8-1.5 3-.1 1.5-.6 2-1.7 1.5-.8-.3-2.3-.9-3.3-1.1-1.6-.5-1.3-1.1 1.9-4.4 3.8-3.9 5.1-4.8 3.9-2.9zM60 413.6c0 .8-1.9 1.3-2.4.6-.3-.5.1-.9.9-.9s1.5.2 1.5.3zm162.5.3c-.9.8-3.6 1-3 .2.2-.4 1.1-.8 2-.8.8 0 1.3.3 1 .6zm5.5-.3c0 .8-1.9 1.3-2.4.6-.3-.5.1-.9.9-.9s1.5.2 1.5.3zm2.7.1c-.4.3-.1 1.3.6 2.2 1.1 1.4 1 1.4-.5.2-1.6-1.2-1.6-3.1-.1-3.1.4 0 .3.3 0 .7zm-176.2 3.2c.3.5.2 1.2-.3 1.5-.5.3-.9-.1-.9-.9 0-1.7.3-1.9 1.2-.6zm163.9.9c.3.5-.1.9-.9.9s-1.2-.4-.9-.9c.3-.4.7-.8.9-.8.2 0 .6.4.9.8zm8 0c.2.4-.5.9-1.7.9-1.7.2-1.9 0-.7-.7 1.8-1.2 1.8-1.2 2.4-.2zm72.6 19.1c1.5 2.8 1.3 3.5-1.6 6.4-3 3.1-6.9 3.8-10.6 2-3.3-1.6-3.3-1.5-1.2-5.4 2.5-4.9 11.3-6.9 13.4-3zm-53.1 2.6c.2.2.1 1.5-.3 2.9-1.1 4.5-10.5 5.5-14.1 1.6-1.1-1.2-1.4-2.6-1-4 .7-2.1 1.1-2.2 7.9-1.5 3.9.4 7.3.8 7.5 1z"/><path d="M229.4 68c-19.2 3.2-44.7 12.7-63.7 23.6-4.5 2.6-8.3 4.8-8.5 5-.2.1 1.5 3.3 3.7 7 2.3 3.7 4.1 7.3 4.1 8 0 .7-4.6 5-10.2 9.6-13.1 10.6-24.4 22-28.5 28.9-4.3 7.3-4.9 8.9-3 8.9.8 0 4.1-3.5 7.3-7.8 10.9-14.5 29.7-31.5 45.5-41 9.3-5.6 30-14.8 37.9-16.7 6-1.5 21.5-4.5 26-5 7-.8 10.1-3.9 13-13.2 1.2-3.7 2.4-7.4 2.7-8.1.7-1.8-13.2-1.4-26.3.8zm18.9 9.4c-3.9 8.1-4.7 8.6-13.9 8.6H230v-7.5c0-6.5.2-7.5 1.8-7.5 4.5-.1 17.7-1.3 18.1-1.6.2-.2.7-.1 1.1.1.5.3-.8 3.8-2.7 7.9z"/><path d="M145.7 105.5c-9.5 5.6-21.5 17.2-32.4 31.6-16.4 21.4-27.1 42.4-34.7 67.9-3.1 10.3-6.3 29.1-6.5 38.1l-.2 6.7 9.8-3.5c5.4-1.9 10.3-4 10.9-4.7.6-.6 1.6-4.9 2.2-9.6 1.4-10.1 1.5-10.6 3.7-19 3.7-14.6 11.5-32.8 19.1-44.8 1.9-2.9 3.4-5.4 3.4-5.7 0-.2-3.1-2.3-7-4.6-3.8-2.3-7-4.5-7-4.9 0-.4 2.5-4.3 5.6-8.6 5.2-7.3 17.5-20.3 26.9-28.3 6.8-5.8 14-12.5 14.8-13.9 1.4-2.1-.6-1.4-8.6 3.3zM93.4 227.2c-.9 4.8-4.8 11.1-8.8 14.1-3.6 2.8-8.1 4.9-8.8 4.1-.4-.4.7-11.9 1.7-18.2l.6-3.2H94l-.6 3.2z"/></svg>